<svg width="1590" height="135" viewBox="0 0 1590 135" fill="none" xmlns="http://www.w3.org/2000/svg">
<g clip-path="url(#clip0_32_151)">
<mask id="mask0_32_151" style="mask-type:luminance" maskUnits="userSpaceOnUse" x="0" y="0" width="1589" height="135">
<path d="M1588.7 0H0.137451V134.803H1588.7V0Z" fill="white"/>
</mask>
<g mask="url(#mask0_32_151)">
<path d="M92.9804 72.427C96.8824 77.2589 98.8331 84.3307 98.8331 93.6427C98.8331 120.199 82.6978 133.478 50.4278 133.478H0.137451V1.32043H44.7627C59.7644 1.32043 70.9501 4.12062 78.3192 9.72098C85.6883 15.3214 89.3746 24.1013 89.3781 36.0608C89.3781 42.7319 88.2134 48.2075 85.8842 52.4874C83.5215 56.7916 79.8441 60.2302 75.388 62.302C83.2111 64.194 89.0756 67.569 92.9804 72.427ZM18.86 56.4536H44.7627C53.9744 56.4536 60.9093 54.8115 65.5677 51.5266C70.2262 48.242 72.5569 43.0817 72.5603 36.046C72.5603 28.9971 70.2573 24.0257 65.6516 21.1319C61.046 18.2382 54.083 16.7962 44.7627 16.806H18.86V56.4536ZM80.1253 93.6427C80.1253 85.592 77.6989 79.8338 72.8465 76.3686C67.9942 72.9034 60.5244 71.1721 50.4377 71.1756H18.8551V117.982H50.4377C70.2262 117.992 80.1219 109.879 80.1253 93.6427Z" fill="#4A5565"/>
<path d="M248.229 88.7354C246.72 88.8822 245.204 88.9448 243.689 88.9226H214.381V133.478H195.658V1.32043H243.689C258.944 1.32043 270.825 5.12901 279.333 12.7462C287.84 20.3633 292.095 31.1551 292.099 45.1215C292.099 55.1923 289.862 63.6569 285.388 70.5153C280.913 77.3737 274.452 82.314 266.004 85.3358L293.609 133.478H272.434L248.229 88.7354ZM243.689 73.4617C253.269 73.4617 260.612 70.8814 265.718 65.7213C270.824 60.5613 273.376 53.6945 273.376 45.1215C273.376 36.5814 270.824 29.723 265.718 24.5463C260.612 19.3697 253.269 16.7896 243.689 16.806H214.381V73.4666L243.689 73.4617Z" fill="#4A5565"/>
<path d="M506.905 104.689C501.358 114.819 493.828 122.374 484.309 127.353C474.791 132.333 464.045 134.816 452.07 134.803C440.088 134.803 429.34 132.316 419.826 127.343C410.312 122.371 402.78 114.816 397.229 104.679C391.683 94.5493 388.909 82.1199 388.909 67.3916C388.909 52.7914 391.652 40.4245 397.136 30.2912C402.62 20.158 410.058 12.5753 419.451 7.54325C428.837 2.51441 439.394 0 451.122 0C463.222 0 474.127 2.4865 483.835 7.45949C493.543 12.4325 501.2 19.9528 506.811 30.0203C512.402 40.0911 515.2 52.5515 515.2 67.4015C515.215 82.1234 512.452 94.5527 506.905 104.689ZM483.174 28.5077C475.041 20.0792 464.349 15.8633 451.098 15.86C438.491 15.86 428.279 20.14 420.462 28.6998C412.646 37.2597 408.747 50.1604 408.767 67.4015C408.767 84.7706 412.738 97.7026 420.68 106.197C428.621 114.691 439.085 118.939 452.07 118.943C465.048 118.943 475.511 114.694 483.46 106.197C491.408 97.6991 495.377 84.7677 495.372 67.4015C495.372 49.9071 491.306 36.9427 483.174 28.5077Z" fill="#4A5565"/>
<path d="M636.433 97.4217L623.573 133.478H602.966L652.881 1.32043H671.604L721.524 133.478H700.911L688.081 97.4217H636.433ZM662.336 25.6746L642.296 81.5617H682.381L662.336 25.6746Z" fill="#4A5565"/>
<path d="M901.16 8.68631C911.266 13.4969 919.695 21.2193 925.365 30.8578C931.286 40.7414 934.247 52.9195 934.247 67.3916C934.247 81.8637 931.286 94.0418 925.365 103.925C919.695 113.563 911.266 121.285 901.16 126.097C890.959 131.004 879.555 133.458 866.937 133.458H822.119V1.32043H866.937C879.535 1.32043 890.94 3.77572 901.16 8.68631ZM901.441 105.256C910.323 96.8832 914.765 84.2651 914.765 67.4015C914.765 50.4067 910.323 37.7606 901.441 29.4635C892.558 21.1664 881.055 17.013 866.937 17.0031H840.842V117.81H866.937C881.05 117.81 892.553 113.625 901.441 105.256Z" fill="#4A5565"/>
<path d="M1149.45 133.478H1130.73L1104.63 36.6274L1078.34 133.478H1059.64L1018.21 1.32043H1038.82L1068.52 100.437L1094.98 1.32043H1114.08L1140.57 100.437L1170.24 1.32043H1190.85L1149.45 133.478Z" fill="#4A5565"/>
<path d="M1308.27 97.4217L1295.41 133.478H1274.79L1324.73 1.32043H1343.44L1393.37 133.478H1372.76L1359.9 97.4217H1308.27ZM1334.18 25.6746L1314.14 81.5617H1354.24L1334.18 25.6746Z" fill="#4A5565"/>
<path d="M1542.94 68.3425V133.478H1524.03V68.3425L1477.89 1.51257H1500.02L1533.49 51.3542L1566.58 1.51257H1588.7L1542.94 68.3425Z" fill="#4A5565"/>
</g>
</g>
<defs>
<clipPath id="clip0_32_151">
<rect width="1589" height="135" fill="white" transform="translate(0.137451)"/>
</clipPath>
</defs>
</svg>
