<svg width="1000" height="391" viewBox="0 0 1000 391" fill="none" xmlns="http://www.w3.org/2000/svg">
<g clip-path="url(#clip0_32_83)">
<mask id="mask0_32_83" style="mask-type:luminance" maskUnits="userSpaceOnUse" x="0" y="0" width="1000" height="390">
<path d="M0.499756 389.807H999.498V0.913891H0.499756V389.807Z" fill="white"/>
</mask>
<g mask="url(#mask0_32_83)">
<path d="M351.8 331.401C351.8 331.401 199.642 244.083 3.27808 281.781C3.27808 281.781 114.918 207.918 252.631 214.044C339.771 217.91 440.366 272.471 440.366 272.471C440.366 272.471 600.409 364.212 788.911 322.083C788.911 322.083 677.193 397.837 539.55 389.812C453.611 384.8 351.8 331.401 351.8 331.401Z" fill="#4A5565"/>
</g>
<mask id="mask1_32_83" style="mask-type:luminance" maskUnits="userSpaceOnUse" x="-55" y="-73" width="1095" height="502">
<path d="M-54.4177 428.892H1039.75V-72.431H-54.4177V428.892Z" fill="white"/>
</mask>
<g mask="url(#mask1_32_83)">
<path d="M127.074 161.519C113.503 165.299 99.491 165.965 91.4819 165.965C32.5364 165.965 0.499756 129.265 0.499756 84.332C0.499756 39.174 33.1948 0.909825 90.808 0.909825C113.728 0.909825 129.072 6.47131 134.409 8.47748V35.3941C128.181 31.1649 114.394 22.4896 93.2556 22.4896C56.1068 22.4896 31.6456 48.074 31.6456 82.5505C31.6456 117.476 55.6653 144.393 97.7095 144.393C117.949 144.393 135.966 138.165 141.752 136.159L127.074 161.519Z" fill="#4A5565"/>
<path d="M235.179 133.268C235.179 155.514 235.62 157.071 236.961 161.966H211.601C210.268 157.513 209.819 151.951 209.819 145.723L197.364 162.857C193.359 163.965 190.246 164.631 184.018 164.631C170.889 164.631 161.989 161.076 155.986 155.956C152.431 152.842 145.312 145.507 145.312 131.487C145.312 115.027 155.32 104.57 166.884 99.6747C175.343 95.8948 185.8 94.3379 195.807 94.3379C201.144 94.3379 204.033 94.5625 209.819 95.2287C209.819 78.5442 206.481 68.0951 186.683 68.0951C174.452 68.0951 163.554 72.092 153.988 75.8797L167.558 52.743C173.786 51.4029 184.235 49.1799 194.475 49.1799C202.476 49.1799 216.271 49.846 225.838 59.4121C234.954 68.5366 234.954 79.6596 235.179 89.001V133.268ZM209.819 112.362C207.372 112.138 204.924 111.913 202.701 111.913C192.469 111.913 187.798 112.804 185.126 113.695C175.784 116.584 171.78 123.485 171.78 130.596C171.78 138.388 176.458 146.39 190.246 146.39C198.255 146.39 205.815 143.059 209.819 141.277V112.362Z" fill="#4A5565"/>
<path d="M284.786 161.964H258.76V4.91876H284.786V161.964Z" fill="#4A5565"/>
<path d="M408.682 161.964H382.432V143.723L369.76 161.964C365.972 163.072 360.635 164.636 353.067 164.636C316.585 164.636 301.682 137.27 301.682 108.797C301.682 77.2096 321.48 49.4022 354.624 49.4022C364.864 49.4022 373.757 51.6252 382.432 56.7452V4.91806H408.682V161.964ZM382.432 75.8773C373.757 70.3158 365.755 69.425 360.86 69.425C356.855 69.425 349.512 70.0912 342.394 75.6527C332.611 83.4372 329.272 96.3417 329.272 109.022C329.272 113.917 329.714 118.812 331.271 123.483C334.826 135.497 344.392 145.063 360.635 145.063C368.203 145.063 375.538 143.057 382.432 139.718V75.8773Z" fill="#4A5565"/>
<path d="M511.681 161.075C503.005 163.522 494.105 164.638 485.206 164.638C445.617 164.638 425.586 140.61 425.586 107.466C425.586 73.4311 446.5 49.1867 478.536 49.1867C486.321 49.1867 494.105 50.519 501.224 53.8574C527.691 66.0881 527.924 95.2277 528.141 108.574H453.618C454.292 115.692 455.175 127.489 464.292 136.164C471.86 143.283 482.541 145.723 492.99 145.723C507.893 145.723 519.914 140.835 524.361 139.053L511.681 161.075ZM501.441 92.1139C501.224 88.1171 500.782 79.8833 494.996 73.6557C490.992 69.4265 485.43 66.9788 478.978 66.9788C465.407 66.9788 456.732 77.6525 454.067 92.1139H501.441Z" fill="#4A5565"/>
<path d="M569.29 161.964H542.598V52.0749H569.29V71.207L581.97 53.4072C586.416 51.6256 593.093 49.8518 602.435 49.8518C607.33 49.8518 609.778 50.518 612.891 51.4087V76.7685C607.113 73.8716 600.653 70.5409 591.536 70.5409C586.416 70.5409 577.966 71.6485 569.29 77.21V161.964Z" fill="#4A5565"/>
<path d="M724.777 161.964H698.534V143.723L685.854 161.964C682.066 163.072 676.729 164.636 669.169 164.636C632.687 164.636 617.776 137.27 617.776 108.797C617.776 77.2096 637.574 49.4022 670.719 49.4022C680.959 49.4022 689.858 51.6252 698.534 56.7452V4.91806H724.777V161.964ZM698.534 75.8773C689.858 70.3158 681.849 69.425 676.954 69.425C672.949 69.425 665.606 70.0912 658.496 75.6527C648.705 83.4372 645.367 96.3417 645.367 109.022C645.367 113.917 645.808 118.812 647.365 123.483C650.928 135.497 660.494 145.063 676.729 145.063C684.297 145.063 691.64 143.057 698.534 139.718V75.8773Z" fill="#4A5565"/>
<path d="M830.445 133.268C830.445 155.514 830.887 157.071 832.219 161.966H806.859C805.527 157.513 805.078 151.951 805.078 145.723L792.622 162.857C788.618 163.965 785.504 164.631 779.276 164.631C766.155 164.631 757.255 161.076 751.252 155.956C747.689 152.842 740.571 145.507 740.571 131.487C740.571 115.027 750.586 104.57 762.15 99.6747C770.601 95.8948 781.058 94.3379 791.065 94.3379C796.41 94.3379 799.299 94.5625 805.078 95.2287C805.078 78.5442 801.747 68.0951 781.949 68.0951C769.718 68.0951 758.812 72.092 749.254 75.8797L762.816 52.743C769.044 51.4029 779.501 49.1799 789.733 49.1799C797.742 49.1799 811.53 49.846 821.096 59.4121C830.22 68.5366 830.22 79.6596 830.445 89.001V133.268ZM805.078 112.362C802.63 112.138 800.19 111.913 797.967 111.913C787.727 111.913 783.056 112.804 780.392 113.695C771.05 116.584 767.038 123.485 767.038 130.596C767.038 138.388 771.716 146.39 785.504 146.39C793.513 146.39 801.081 143.059 805.078 141.277V112.362Z" fill="#4A5565"/>
<path d="M880.043 161.964H854.017V4.91876H880.043V161.964Z" fill="#4A5565"/>
<path d="M983.032 161.075C974.357 163.522 965.465 164.638 956.565 164.638C916.968 164.638 896.946 140.61 896.946 107.466C896.946 73.4311 917.859 49.1867 949.888 49.1867C957.673 49.1867 965.465 50.519 972.576 53.8574C999.058 66.0881 999.275 95.2277 999.5 108.574H924.978C925.644 115.692 926.534 127.489 935.651 136.164C943.219 143.283 953.893 145.723 964.349 145.723C979.252 145.723 991.266 140.835 995.72 139.053L983.032 161.075ZM972.808 92.1139C972.576 88.1171 972.134 79.8833 966.356 73.6557C962.351 69.4265 956.79 66.9788 950.337 66.9788C936.767 66.9788 928.091 77.6525 925.419 92.1139H972.808Z" fill="#4A5565"/>
<path d="M687.236 293.641C679.831 295.671 672.194 296.027 667.825 296.027C635.68 296.027 618.206 276.376 618.206 252.325C618.206 228.151 636.037 207.671 667.461 207.671C679.963 207.671 688.328 210.645 691.233 211.714V226.121C687.841 223.859 680.319 219.22 668.801 219.22C648.538 219.22 635.192 232.914 635.192 251.372C635.192 270.063 648.298 284.47 671.226 284.47C682.264 284.47 692.085 281.14 695.238 280.071L687.236 293.641Z" fill="#4A5565"/>
<path d="M727.512 295.313C707.861 295.313 697.784 281.859 697.784 265.066C697.784 247.444 709.193 233.626 728.24 233.626C745.591 233.626 757.473 245.539 757.473 263.989C757.473 281.378 747.28 295.313 727.512 295.313ZM727.628 243.625C722.78 243.749 718.899 245.771 716.227 250.295C713.562 254.586 712.958 259.59 712.958 264.586C712.958 269.233 713.562 274.709 716.351 279C719.139 283.284 723.384 285.189 727.752 285.189C737.822 285.189 742.431 275.19 742.431 264.229C742.431 253.393 738.31 243.625 727.876 243.625H727.628Z" fill="#4A5565"/>
<path d="M821.409 293.884H807.211V282.691L799.574 293.404C794.593 295.077 790.109 295.317 787.676 295.317C784.64 295.317 778.095 294.953 772.758 290.429C766.941 285.426 766.693 279.237 766.693 274.109V235.055H781.015V269.229C781.015 277.688 782.223 284.473 793.145 284.473C797.87 284.473 803.338 282.691 807.211 279.949V235.055H821.409V293.884Z" fill="#4A5565"/>
<path d="M834.267 235.056H848.457V246.249L856.226 235.529C860.951 233.871 866.048 233.631 868.356 233.631C885.583 233.631 888.975 244.343 888.975 256.605V293.885H874.785V260.424C874.785 251.485 873.089 244.459 862.051 244.459C857.682 244.459 852.593 246.009 848.457 248.867V293.885H834.267V235.056Z" fill="#4A5565"/>
<path d="M942.353 293.405C940.045 294.117 935.8 295.31 929.735 295.31C912.516 295.31 898.086 284.118 898.086 264.823C898.086 248.866 909.108 233.506 930.711 233.506C933.98 233.506 940.045 233.863 946.845 236.605V249.107C944.901 247.557 939.928 243.987 932.283 243.987C920.641 243.987 913.36 252.794 913.36 264.466C913.36 275.899 920.758 285.31 934.344 285.31C939.317 285.31 943.445 283.994 949.146 282.212L942.353 293.405Z" fill="#4A5565"/>
<path d="M968.923 215.289C968.923 219.58 965.406 222.43 961.278 222.43C957.273 222.43 953.757 219.456 953.757 215.289C953.757 211.122 957.273 208.147 961.278 208.147C965.282 208.147 968.923 210.881 968.923 215.289ZM968.443 293.885H954.245V234.94H968.443V293.885Z" fill="#4A5565"/>
<path d="M995.61 293.883H981.412V209.81H995.61V293.883Z" fill="#4A5565"/>
</g>
</g>
<defs>
<clipPath id="clip0_32_83">
<rect width="1000" height="389.897" fill="white" transform="translate(0 0.410004)"/>
</clipPath>
</defs>
</svg>
