<svg width="1369" height="516" viewBox="0 0 1369 516" fill="none" xmlns="http://www.w3.org/2000/svg">
<g clip-path="url(#clip0_32_177)">
<path fill-rule="evenodd" clip-rule="evenodd" d="M0.611816 257.693V515.193H1368.61V0.192627H0.611816V257.693ZM1321.75 257.693V468.203H47.4731V47.2118H1321.75V257.693ZM177.87 112.445C171.657 114.321 165.635 116.776 159.882 119.777L151.296 124.491L144.543 132.143C136.102 141.745 129.99 154.547 127.37 168.077L125.362 178.551L125.944 264.676L126.497 350.8L130.514 360.751C133.188 367.121 136.432 373.236 140.206 379.023L145.853 387.316L154.759 393.571L163.637 399.827L173.707 403.144L183.778 406.461L205.463 406.373L227.176 406.286L236.985 402.387L246.794 398.488L254.681 392.466L262.569 386.414L268.682 373.815L274.823 361.216L276.569 349.898L278.345 338.609V310.269L278.374 281.959L250.141 282.453L221.966 282.919L221.093 315.972L220.19 349.025L218.706 352.138C216.552 356.561 211.924 358.598 204.036 358.598H197.167L193.412 355.572L189.658 352.517L188.057 345.534L186.456 338.609V178.551L188.028 171.743L189.6 164.964L193.092 161.472L196.585 157.951H212.594L216.407 161.734L220.219 165.575L221.093 192.052L221.966 218.529L250.17 219.024L278.403 219.49L278.374 199.006V178.551L276.569 167.611C275.322 160.541 273.502 153.583 271.127 146.808L267.43 136.915L258.523 127.982L249.617 119.079L239.284 115.035L228.922 111.019L208.111 110.438L187.271 109.856L177.899 112.474L177.87 112.445ZM352.159 112.212C334.899 116.431 323.343 124.025 312.399 138.399L306.171 146.546L302.27 159.057L298.341 171.568V347.308L302.299 358.307C307.393 372.447 312.516 380.449 321.743 388.829L329.165 395.521L338.188 399.681C349.568 404.919 362.259 407.334 378.005 407.304L390.346 407.275L401.494 404.657L412.613 402.009L421.083 397.383L429.523 392.786L436.305 385.424C444.848 375.783 450.895 364.194 453.915 351.673L456.33 342.071V169.823L452.343 158.824C443.145 133.307 427.777 119.079 402.193 112.416L392.238 109.797L376.521 109.943L360.832 110.088L352.159 112.212ZM1004.49 112.503C992.878 115.359 982.194 121.15 973.464 129.321L965.78 136.391L960.773 147.011L955.738 157.66L953.729 168.077L951.75 178.551L952.303 264.676L952.827 350.8L956.611 360.867C959.157 367.258 962.388 373.355 966.245 379.052L972.066 387.199L980.158 393.018L988.25 398.838L998.32 402.445L1008.39 406.053L1024.89 406.897L1041.37 407.77L1050.92 405.733C1057.23 404.293 1063.39 402.257 1069.31 399.652L1078.19 395.55L1084.74 388.974L1091.29 382.398L1096.23 371.807L1101.18 361.216L1102.93 349.025L1104.68 336.863V309.454L1104.73 282.046H1047.45V346.61L1044.89 351.527C1041.92 357.317 1039.16 358.598 1029.87 358.598H1022.97L1018.87 354.466L1014.74 350.334L1013.63 342.74L1012.52 335.117L1013.05 252.164L1013.6 169.212L1017.18 164.382L1020.79 159.552L1026.26 158.097L1031.73 156.7L1037.85 159.261L1043.99 161.821L1045.73 166.389L1047.45 170.928V219.402H1105.23L1104.27 192.023L1103.34 164.614L1099.73 153.296L1096.12 141.978L1089.57 133.423L1083.02 124.84L1075.16 120.01L1067.24 115.151L1056.97 112.474L1046.72 109.797L1030.13 109.914L1013.6 110.03L1004.49 112.503ZM478.015 258.566V403.842H528.369V323.537C528.369 279.34 528.718 243.523 529.126 243.959C529.562 244.396 538.556 276.43 549.151 315.157C559.745 353.884 569.583 389.672 571.01 394.706L573.629 403.842H627.301V113.289H575.259L574.793 183.614L574.357 253.968L557.126 189.288L538.352 118.934L536.868 113.289H478.015V258.566ZM642.931 136.769V160.25H681.148V403.842H743.64V160.25H780.081V113.289H642.931V136.769ZM822.693 115.471C822.285 116.635 810.177 180.646 795.769 257.693C786.932 305.431 777.88 353.13 768.613 400.787L767.711 403.842H826.971V402.096C828.634 388.271 830.672 374.494 833.084 360.78L833.957 356.852H876.859L880.003 380.362L883.146 403.842H947.035L946.016 399.07C944.939 393.978 907.683 196.504 897.933 144.189L892.169 113.289H823.391L822.693 115.471ZM1115.15 136.769V160.25H1153.34V403.842H1215.83V160.25H1252.3V113.289H1115.15V136.769ZM388.076 161.443L391.278 164.294L393.082 170.55L394.887 176.777L394.363 262.348L393.81 347.89L390.172 352.837L386.533 357.725L377.976 358.249L369.39 358.772L365.111 354.204L360.832 349.636L360.367 260.631L359.872 171.656L361.968 166.622L364.034 161.588L369.39 159.173L374.716 156.788L379.81 157.66C382.633 158.155 386.33 159.843 388.076 161.443ZM862.743 262.901L869.787 311.637H840.855L840.826 308.582C840.739 302.85 853.865 214.194 854.797 214.194C855.292 214.194 858.872 236.132 862.743 262.901Z" fill="#4A5565"/>
</g>
<defs>
<clipPath id="clip0_32_177">
<rect width="1368" height="515" fill="white" transform="translate(0.611816 0.192627)"/>
</clipPath>
</defs>
</svg>
