<svg width="1890" height="182" viewBox="0 0 1890 182" fill="none" xmlns="http://www.w3.org/2000/svg">
<g clip-path="url(#clip0_32_233)">
<mask id="mask0_32_233" style="mask-type:luminance" maskUnits="userSpaceOnUse" x="0" y="0" width="1890" height="182">
<path d="M1889.61 0.392212H0.611816V181.392H1889.61V0.392212Z" fill="white"/>
</mask>
<g mask="url(#mask0_32_233)">
<mask id="mask1_32_233" style="mask-type:luminance" maskUnits="userSpaceOnUse" x="0" y="0" width="1890" height="182">
<path d="M1889.61 0.392212H0.611816V181.392H1889.61V0.392212Z" fill="white"/>
</mask>
<g mask="url(#mask1_32_233)">
<path d="M873.783 150.585C868.153 133.616 857.01 99.905 848.962 75.6209C840.916 51.3743 832.149 24.903 829.466 16.7959C826.786 8.72626 824.593 1.71252 824.593 1.22231C824.593 0.355019 824.593 0.355019 829.959 0.468144L835.285 0.581269L842.388 21.8865C850.586 46.5477 860.712 77.0914 871.252 108.993C875.332 121.323 882.209 142.138 886.59 155.261C890.936 168.346 894.486 179.583 894.486 180.224V181.393H889.273H884.022L873.783 150.585Z" fill="#4A5565"/>
<path d="M1774.95 173.098C1769.06 172.155 1763.54 169.553 1759.19 165.632C1758.02 164.576 1757.76 164.086 1757.76 162.954C1757.76 161.748 1758.1 161.22 1760.9 158.467C1764.67 154.734 1765.54 154.508 1768.15 156.808C1777.93 165.33 1792.1 163.331 1797.32 152.698C1798.86 149.455 1799.69 145.005 1799.69 139.688V135.39L1797.81 136.86C1793.24 140.48 1788.97 141.574 1780.43 141.31C1773.89 141.121 1771.02 140.405 1766.94 137.954C1760.78 134.258 1756.7 126.34 1755.53 115.668C1754.59 107.259 1755.23 93.684 1756.82 87.4622C1758.7 80.2599 1763.39 74.0382 1768.83 71.6624C1772.8 69.8901 1776.16 69.2869 1781.94 69.3246C1789.72 69.3246 1793.99 70.5688 1798.49 74.1512L1799.69 75.1694V72.6428V70.154H1805.93H1812.16L1812.09 110.238C1811.93 155.45 1812.2 151.83 1808.87 158.769C1807.44 161.785 1806.65 162.803 1803.89 165.556C1800.22 169.176 1796.94 171.062 1791.84 172.381C1788.48 173.286 1778.73 173.664 1774.95 173.098ZM1787.98 129.281C1796.56 126.679 1800.19 118.345 1799.58 102.81C1799.05 89.4985 1795.27 83.0502 1786.89 81.0896C1780.84 79.6565 1773.82 82.7863 1770.91 88.141C1766.26 96.7385 1766.53 115.743 1771.44 123.398C1774.8 128.715 1781.75 131.166 1787.98 129.281Z" fill="#4A5565"/>
<path d="M1096.12 142.138C1092.91 141.723 1088.6 140.29 1085.73 138.707C1082.44 136.897 1077.83 132.032 1075.94 128.412C1072.73 122.228 1071.56 116.082 1071.56 105.976C1071.56 98.3587 1072.13 93.7583 1073.83 88.6676C1077.19 78.3357 1084.44 71.6612 1094.34 69.7382C1098.31 68.9838 1105.68 69.1724 1109.61 70.1151C1119.84 72.5662 1127.06 80.2587 1129.63 91.4958C1130.42 95.0403 1131.06 102.356 1130.91 106.353L1130.8 109.558L1107.49 109.671L1084.14 109.747V110.878C1084.14 112.688 1085.28 117.665 1086.14 119.739C1088.64 125.735 1093.7 129.77 1100.09 130.901C1106.17 131.995 1113.12 129.845 1118.03 125.433C1121.28 122.492 1121.7 122.53 1126.04 126.376C1129.1 129.053 1129.48 129.544 1129.48 130.675C1129.48 131.731 1129.14 132.259 1127.14 134.069C1122.11 138.594 1117.05 141.045 1110.66 141.987C1106.7 142.591 1100.2 142.666 1096.12 142.138ZM1117.99 97.6046C1117.39 92.2499 1114.82 86.9708 1111.57 84.2935C1104.69 78.6749 1095.89 79.2407 1089.47 85.651C1086.79 88.3283 1084.18 94.8519 1084.14 98.9244V99.9424H1101.18H1118.26L1117.99 97.6046Z" fill="#4A5565"/>
<path d="M1174.82 142.177C1170.66 141.536 1167.18 139.99 1163.97 137.35L1162.35 136.069V138.934V141.8L1156.23 141.725L1150.07 141.612L1149.95 90.4414L1149.88 39.2336H1156.11H1162.35V57.3336V75.4336L1164.24 73.9628C1166.65 72.0775 1169.56 70.6823 1172.81 69.928C1176.36 69.0986 1185.01 69.0986 1188.6 69.928C1198.96 72.3791 1204.66 79.6567 1206.78 93.0432C1207.65 98.5487 1207.65 113.217 1206.81 118.647C1204.77 131.506 1199.45 138.708 1189.93 141.423C1186.72 142.328 1178.4 142.743 1174.82 142.177ZM1183.13 130.412C1190.42 128.225 1194.01 122.041 1194.8 110.238C1195.37 101.905 1194.31 93.9482 1192.08 89.1969C1188.79 82.3341 1181.65 79.2043 1174.36 81.4668C1170.39 82.6736 1167.83 84.8605 1165.82 88.6314C1161.59 96.5502 1161.48 114.386 1165.56 122.795C1168.73 129.281 1176.17 132.486 1183.13 130.412Z" fill="#4A5565"/>
<path d="M1244.52 142.29C1235.04 140.82 1228.88 135.654 1225.82 126.641C1224.23 121.966 1223.51 117.139 1223.28 109.145C1222.72 90.2152 1226.23 78.6011 1234.13 73.3594C1242.93 67.5148 1258.72 67.7787 1266.43 73.9252L1267.94 75.1318L1268.05 57.1827L1268.13 39.2336H1274.36H1280.6V90.5168V141.8H1274.59C1267.64 141.8 1267.87 141.913 1268.36 138.142L1268.62 135.993L1266.62 137.577C1262.31 141.008 1258.38 142.215 1250.94 142.366C1248.03 142.441 1245.16 142.404 1244.52 142.29ZM1254.94 130.714C1258.2 129.998 1260.23 128.942 1262.35 126.868C1266.13 123.097 1268.13 115.781 1268.13 105.789C1268.13 95.4943 1266.01 88.2919 1261.82 84.4836C1259.06 81.9569 1256.38 80.9389 1252.26 80.9389C1243.39 80.8636 1238.36 85.8788 1236.32 96.8518C1235.68 100.283 1235.72 111.445 1236.36 114.989C1238.28 125.472 1243.01 130.412 1251.88 131.166C1252.19 131.204 1253.58 130.978 1254.94 130.714Z" fill="#4A5565"/>
<path d="M1324.76 142.177C1321.74 141.8 1317.43 140.405 1314.6 138.934C1306.52 134.711 1301.64 126.189 1300.21 113.707C1299.64 109.031 1299.98 97.8321 1300.81 93.9102C1303 83.1258 1307.99 75.9235 1315.92 72.0019C1320.38 69.8147 1323.67 69.2869 1331 69.4752C1336.25 69.6262 1337.49 69.8147 1340.1 70.6444C1346.75 72.8313 1351.96 77.3563 1355.14 83.729C1358.05 89.6494 1359.18 95.381 1359.18 104.544V109.748H1335.76H1312.37L1312.56 111.746C1313.77 123.21 1320.34 130.374 1330.47 131.091C1336.1 131.506 1341.39 129.696 1346.26 125.585C1348.07 124.077 1349.32 123.323 1349.96 123.323C1350.64 123.323 1351.96 124.228 1354.31 126.226L1357.71 129.168L1357.59 130.827C1357.48 132.448 1357.33 132.637 1354.34 135.05C1349.17 139.236 1344.37 141.347 1338.29 142.177C1335.04 142.592 1328.05 142.592 1324.76 142.177ZM1346.33 98.209C1346.33 94.2497 1344.3 89.0837 1341.61 86.0671C1337.23 81.2026 1330.92 79.2796 1325.22 81.0519C1319.32 82.8996 1314.98 87.6508 1313.31 94.1365C1312.86 96.0221 1312.52 98.6238 1312.67 99.6797C1312.71 99.8307 1320.27 99.9437 1329.52 99.9437H1346.33V98.209Z" fill="#4A5565"/>
<path d="M1698.26 141.989C1687.15 139.915 1681.07 132.524 1679.03 118.723C1678.23 113.368 1678.2 98.2469 1678.99 92.9678C1680.57 82.2964 1684.85 75.1694 1691.64 71.9266C1695.91 69.8903 1698.9 69.2869 1705.06 69.2869C1712.76 69.2869 1717.18 70.5314 1721.41 73.8875L1723.38 75.4336V57.3336V39.2336H1729.61H1735.85L1735.77 90.4414L1735.66 141.612L1729.54 141.725L1723.38 141.8V138.972V136.144L1721.41 137.728C1718.81 139.839 1715.33 141.385 1711.74 142.026C1708.12 142.668 1701.73 142.63 1698.26 141.989ZM1711.29 130.412C1716.77 128.753 1720.13 124.869 1721.94 118.119C1722.93 114.386 1723.34 102.395 1722.63 97.6061C1720.96 86.2936 1715.86 80.8636 1706.94 80.9389C1699.12 80.9766 1694.25 85.2753 1692.02 94.0614C1690.4 100.547 1690.4 111.445 1692.02 117.893C1692.97 121.589 1695.16 125.661 1697.09 127.358C1700.9 130.639 1706.45 131.845 1711.29 130.412Z" fill="#4A5565"/>
<path d="M1856.18 142.177C1845.75 140.555 1838.34 134.861 1834.61 125.585C1832.15 119.589 1831.24 112.651 1831.54 103.148C1832 90.5916 1834.72 83.0121 1841.03 76.7527C1846.54 71.2471 1851.68 69.3994 1861.31 69.3994C1867.7 69.3994 1871.14 70.0782 1875.45 72.2277C1881.68 75.2819 1886.52 81.2777 1888.82 88.7816C1889.54 91.0817 1889.61 92.2883 1889.61 100.547V109.747H1866.76H1843.9L1844.12 111.369C1845.79 123.775 1851.76 130.336 1862.03 131.09C1867.55 131.505 1872.88 129.695 1877.6 125.811C1881.23 122.794 1882.02 122.87 1886.14 126.414C1889.08 128.978 1889.23 129.205 1889.23 130.675C1889.23 132.146 1889.05 132.41 1887.08 134.107C1882.28 138.179 1877.86 140.593 1873.18 141.611C1870 142.327 1859.42 142.667 1856.18 142.177ZM1877.98 98.0578C1877.41 89.7242 1872.39 83.0877 1865.09 80.9382C1858.06 78.8642 1850.13 82.6728 1846.51 89.8372C1845.26 92.326 1844.28 95.9839 1844.28 98.3594V99.9432L1861.2 99.8678L1878.09 99.7546L1877.98 98.0578Z" fill="#4A5565"/>
<path d="M979.378 141.536C979.226 141.423 979.114 118.346 979.114 90.2528V39.2336H985.535H991.959L992.035 61.5944L992.148 83.9178L1014.74 84.0311L1037.3 84.1064V61.67V39.2336H1043.91H1050.52V90.5168V141.8L1044.02 141.725L1037.48 141.612L1037.37 118.911L1037.3 96.173H1014.63H991.959V118.987V141.8H985.8C982.402 141.8 979.491 141.687 979.378 141.536Z" fill="#4A5565"/>
<path d="M1378.45 105.977V70.154H1384.68H1390.88L1390.99 72.6051L1391.1 75.0938L1392.43 74.1135C1394.58 72.4921 1397.98 70.9083 1401.08 70.0787C1405.35 68.9474 1413.36 68.9851 1417.74 70.1163C1427.79 72.756 1433.87 80.1846 1435.08 91.3462C1435.53 95.2301 1435.69 140.141 1435.27 141.197C1435.08 141.725 1434.17 141.8 1429.07 141.8H1423.07L1422.92 118.534C1422.76 93.1938 1422.73 92.8923 1420.53 88.5558C1415.24 78.1483 1398.47 78.299 1393.07 88.8198C1391.14 92.666 1391.14 92.4398 1390.92 117.855L1390.73 141.611L1384.61 141.725L1378.45 141.8V105.977Z" fill="#4A5565"/>
<path d="M1494.7 141.536C1494.55 141.423 1494.43 118.307 1494.43 90.2524V39.1954L1517.97 39.3084C1540.94 39.4594 1541.55 39.4594 1544.49 40.2888C1549.74 41.7595 1553.52 43.8711 1556.96 47.3404C1558.81 49.1881 1560.47 51.262 1561.23 52.6949C1565.16 60.1234 1565.42 71.6999 1561.83 79.0154C1560.36 81.9567 1557.68 85.1619 1554.99 87.1225C1553.71 88.0654 1552.65 88.8949 1552.65 89.0081C1552.65 89.1211 1553.48 89.7245 1554.54 90.3279C1559 92.9297 1562.81 97.8319 1564.59 103.111C1565.57 105.977 1565.61 106.58 1565.65 112.953C1565.65 118.911 1565.53 120.117 1564.78 122.682C1561.53 133.994 1553.03 140.291 1539.58 141.423C1534.9 141.837 1495.08 141.951 1494.7 141.536ZM1538.71 129.017C1542.6 127.998 1544.76 126.905 1547.17 124.718C1555.82 116.837 1553.82 102.658 1543.4 97.6809C1539.13 95.6824 1536.75 95.4184 1521.41 95.4184H1507.66V112.576V129.733H1521.75C1534.44 129.733 1536.14 129.658 1538.71 129.017ZM1537.58 82.8238C1538.94 82.5222 1541.02 81.8434 1542.19 81.2779C1550.23 77.4694 1553.41 67.7783 1549.18 59.5579C1548.16 57.4838 1545.25 54.8067 1542.75 53.5245C1538.33 51.2997 1536.82 51.1488 1521.63 51.1111H1507.85L1507.73 67.2504L1507.66 83.3518H1521.33C1531.68 83.3518 1535.65 83.2009 1537.58 82.8238Z" fill="#4A5565"/>
<path d="M1586.99 105.976V70.1533H1593.23H1599.46V72.7553V75.3949L1602.11 73.5849C1608 69.5124 1617.07 68.117 1625.45 70.0026C1628.32 70.6437 1630.78 71.8503 1633.39 73.8865C1635.13 75.2817 1635.35 75.6212 1635.35 76.8654C1635.35 78.1476 1635.01 78.6001 1631.65 81.9562C1627.27 86.3303 1626.89 86.4056 1623.72 83.9545C1620.62 81.5413 1618.77 80.9003 1614.95 80.9003C1612.16 80.9003 1611.44 81.0512 1609.25 82.1068C1605.01 84.0678 1602.3 87.122 1600.48 91.9112C1599.65 94.0604 1599.65 94.5129 1599.46 117.854L1599.27 141.611L1593.15 141.724L1586.99 141.799V105.976Z" fill="#4A5565"/>
<path d="M1646.31 105.977V70.1542H1652.54H1658.78V105.977V141.8H1652.54H1646.31V105.977Z" fill="#4A5565"/>
<path d="M109.985 139.875C99.7089 138.517 90.1128 132.296 85.2391 123.887C83.7279 121.247 82.3301 116.873 81.65 112.537C80.8567 107.559 80.4411 82.3698 81.0456 73.1691C81.5745 64.534 82.4433 60.3859 84.7101 55.8232C86.2213 52.8066 87.0526 51.713 90.1128 48.6209C95.3642 43.3418 100.691 40.4759 107.869 39.043C112.252 38.138 122.679 38.4396 126.797 39.5709C137.262 42.4368 146.254 50.5441 149.238 59.7827C151.014 65.3634 151.165 67.7015 151.165 89.3836C151.165 107.22 151.09 110.387 150.523 113.366C149.125 120.606 147.236 124.566 142.891 129.241C138.358 134.143 132.842 137.386 126.457 139.046C122.301 140.101 114.443 140.478 109.985 139.875ZM121.886 127.394C125.475 126.3 128.951 124.264 131.557 121.662C137.64 115.553 138.736 109.935 138.396 86.1407C138.207 71.5477 137.904 68.4179 136.318 64.2321C135.071 60.9893 133.786 59.1416 131.029 56.502C123.246 49.1866 112.705 48.2816 104.016 54.1641C99.18 57.4823 96.0441 62.1205 94.873 67.8145C93.0974 76.2234 93.1352 103.034 94.9107 110.953C95.8175 114.95 97.4421 118.08 100.087 120.946C103.638 124.754 107.378 126.866 112.63 128.072C115.312 128.676 118.41 128.449 121.886 127.394Z" fill="#4A5565"/>
<path d="M28.1158 139.311C27.9269 139.161 27.8134 119.213 27.8134 94.9664V50.923H14.2126H0.611816V45.0782V39.2336H34.6138H68.6158V45.0782V50.923H54.4483H40.2808V95.0417V139.161H36.5405C34.5004 139.161 31.818 139.274 30.6092 139.387C29.4001 139.5 28.2667 139.5 28.1158 139.311Z" fill="#4A5565"/>
<path d="M239.419 138.595C239.268 138.18 234.659 121.589 229.181 101.716C222.38 77.1303 219.131 65.8178 218.942 66.3457C218.791 66.7605 217.204 72.3037 215.429 78.7141C209.271 101.075 205.039 116.422 202.961 123.889C201.79 128.037 200.392 133.165 199.826 135.314L198.806 139.161H192.685C187.169 139.161 186.527 139.085 186.338 138.519C186.225 138.143 183.656 128.074 180.633 116.159C174.74 92.8548 169.753 73.2087 164.955 54.43C163.292 47.9441 161.932 41.873 161.932 40.9303V39.2336H168.544C175.08 39.2336 175.155 39.2336 175.344 40.1007C175.457 40.5532 176.213 43.6453 177.007 46.9638C177.8 50.2819 180.709 62.3487 183.467 73.7366C192.081 109.559 192.912 112.878 193.025 112.991C193.101 113.066 195.028 106.128 197.37 97.5684C199.712 89.0086 204.208 72.4544 207.42 60.7273L213.237 39.4219L219.131 39.3089C223.665 39.2336 225.063 39.3089 225.214 39.6861C225.289 39.95 227.518 48.1327 230.163 57.8991C232.77 67.6655 237.266 84.1441 240.099 94.5516L245.237 113.444L248.372 100.585C250.072 93.4959 254.078 76.8288 257.288 63.5553L263.107 39.4219L269.756 39.3089L276.406 39.2336V40.9303C276.406 41.873 275.235 47.19 273.799 52.733C272.363 58.2762 267.755 76.3007 263.56 92.7793C259.368 109.258 254.946 126.49 253.775 131.053L251.66 139.311L245.653 139.349C239.986 139.387 239.646 139.349 239.419 138.595Z" fill="#4A5565"/>
<path d="M357.067 139.236L352.532 139.123L345.165 127.924C341.122 121.739 330.053 104.997 320.608 90.63L303.418 64.5736L303.305 101.867L303.229 139.161H296.996H290.763L290.724 136.446C290.724 134.937 290.724 112.501 290.724 86.5575L290.763 39.4219H296.884H303.004L316.112 59.2189C323.29 70.1166 334.36 86.8214 340.669 96.3616L352.155 113.708L352.267 76.4893L352.343 39.2336H358.767H365.189V89.1593V139.085L364.358 139.311C363.866 139.424 363.072 139.5 362.545 139.462C362.016 139.424 359.559 139.311 357.067 139.236Z" fill="#4A5565"/>
<path d="M425.372 139.123C424.995 138.746 424.882 128.188 424.882 88.933V39.2336H431.304H437.726V61.1043V82.9752H459.867H481.966L481.89 61.2175L481.854 39.4219L488.126 39.3089L494.396 39.2336V89.1969V139.161H488.163H481.93L481.854 117.026L481.741 94.8532L459.752 94.7402L437.726 94.6648V116.913V139.161H433.987C431.946 139.161 429.263 139.274 428.055 139.387C426.468 139.538 425.674 139.462 425.372 139.123Z" fill="#4A5565"/>
<path d="M582.311 139.161L577.058 138.972L573.395 128.602C571.355 122.87 569.578 118.006 569.426 117.742C569.238 117.403 564.404 117.29 549.177 117.29C530.551 117.29 529.231 117.328 528.966 117.969C528.549 118.987 522.505 136.182 522.013 137.765L521.523 139.161H514.76H507.998V137.954C507.998 137.275 516.044 114.801 525.867 87.9903L543.698 39.2336L549.365 39.3089L554.995 39.4219L562.25 59.2189C566.217 70.1166 574.15 91.8743 579.893 107.636C587.638 128.791 590.357 136.672 590.357 137.879V139.538L588.961 139.462C588.167 139.424 585.183 139.274 582.311 139.161ZM565.423 105.713C565.423 105.261 549.858 60.9157 549.593 60.6141C549.441 60.4632 548.045 63.8569 546.533 68.1557C545.021 72.4544 541.432 82.598 538.524 90.6677C535.652 98.775 533.31 105.487 533.31 105.675C533.31 105.826 540.525 105.977 549.365 105.977C558.207 105.977 565.423 105.864 565.423 105.713Z" fill="#4A5565"/>
<path d="M682.842 139.311C682.654 139.161 682.541 116.573 682.541 89.1216V39.2336H688.963H695.387V83.5407V127.848H720.321H745.255V133.504V139.161H716.391C700.561 139.161 686.547 139.274 685.337 139.387C684.129 139.5 682.994 139.5 682.842 139.311Z" fill="#4A5565"/>
<path d="M603.958 89.1969V39.2336H610.382H616.803V83.5407V127.848H641.738H666.674V133.504V139.161H635.316H603.958V89.1969Z" fill="#4A5565"/>
<path d="M1645.63 45.9447L1645.74 39.0442L1651.79 38.9689C1655.11 38.931 1658.21 39.0066 1658.7 39.0819L1659.53 39.2328L1659.46 45.9447L1659.34 52.6192L1652.43 52.7322L1645.55 52.8078L1645.63 45.9447Z" fill="#4A5565"/>
</g>
</g>
</g>
<defs>
<clipPath id="clip0_32_233">
<rect width="1889" height="181" fill="white" transform="translate(0.611816 0.392212)"/>
</clipPath>
</defs>
</svg>
