<svg width="761" height="771" viewBox="0 0 761 771" fill="none" xmlns="http://www.w3.org/2000/svg">
<g clip-path="url(#clip0_32_179)">
<mask id="mask0_32_179" style="mask-type:luminance" maskUnits="userSpaceOnUse" x="0" y="0" width="761" height="771">
<path d="M760.137 0.571289H0.137451V770.571H760.137V0.571289Z" fill="white"/>
</mask>
<g mask="url(#mask0_32_179)">
<path d="M708.826 678.218C711.248 678.07 713.73 678.218 715.858 679.495C718.029 680.797 719.462 682.829 720.034 685.29C720.119 685.658 720.185 686.028 720.232 686.402C720.279 686.776 720.307 687.152 720.316 687.528C720.325 687.906 720.316 688.282 720.287 688.657C720.258 689.033 720.211 689.407 720.145 689.778C720.078 690.149 719.993 690.516 719.89 690.878C719.787 691.241 719.665 691.597 719.526 691.947C719.387 692.298 719.23 692.64 719.057 692.974C718.883 693.309 718.693 693.634 718.486 693.949C716.566 696.818 714.222 697.83 710.95 698.486C708.465 698.661 706.055 698.594 703.859 697.276C701.644 695.946 700.207 693.867 699.662 691.349C699.023 688.399 699.61 685.139 701.328 682.645C703.192 679.938 705.657 678.725 708.826 678.218Z" fill="#4A5565"/>
<path d="M715.16 705.841C715.748 705.722 716.279 705.748 716.876 705.755C717.67 707.072 716.71 717.463 716.639 720.08C716.21 735.927 716.124 752.137 717.414 767.947C712.084 767.792 706.724 767.897 701.391 767.891C700.965 767.878 700.687 767.725 700.3 767.561C699.581 765.296 700.349 760.831 700.416 758.334C700.876 741.184 700.878 724.561 698.94 707.486C704.344 706.909 709.751 706.361 715.16 705.841Z" fill="#4A5565"/>
<path d="M745.588 677.076L750.806 676.782C749.689 707.176 749.71 737.569 750.869 767.962C746.761 767.786 742.594 767.893 738.479 767.878L733.406 767.898C733.722 750.413 734.292 732.995 734.227 715.497C734.181 703.007 734.009 690.179 732.122 677.813C736.609 677.676 741.106 677.337 745.588 677.076Z" fill="#4A5565"/>
<path d="M667.806 705.024C673.927 703.987 680.916 705.201 686.92 706.405C685.799 710.729 685.428 715.49 684.802 719.924C679.63 717.836 673.565 716.627 668.011 717.712C663.768 718.541 660.281 721.048 657.967 724.681C654.881 729.527 654.205 736.05 655.407 741.613C656.491 746.629 659.494 751.263 663.9 753.967C671.985 758.929 680.846 756.369 689.32 754.262C688.943 756.9 688.842 759.615 688.643 762.274L688.208 766.598C685.282 768.016 682.457 768.875 679.227 769.287C669.39 770.539 657.984 769.42 649.916 763.156C649.516 762.848 649.124 762.53 648.741 762.203C648.357 761.875 647.982 761.538 647.615 761.192C647.248 760.846 646.89 760.491 646.541 760.127C646.192 759.762 645.852 759.389 645.521 759.009C645.19 758.627 644.87 758.238 644.559 757.841C644.248 757.443 643.947 757.039 643.656 756.627C643.365 756.215 643.084 755.795 642.815 755.369C642.545 754.943 642.286 754.51 642.037 754.071C641.789 753.631 641.552 753.186 641.326 752.736C641.1 752.284 640.885 751.828 640.682 751.366C640.479 750.904 640.287 750.437 640.108 749.966C639.928 749.494 639.76 749.019 639.604 748.54C639.448 748.06 639.304 747.576 639.172 747.089C639.04 746.602 638.92 746.112 638.813 745.619C638.706 745.126 638.611 744.631 638.528 744.133C638.445 743.635 638.374 743.136 638.317 742.635C637.234 733.288 639.627 724.087 645.526 716.711C651.14 709.691 658.96 705.948 667.806 705.024Z" fill="#4A5565"/>
<path d="M1.60923 684.538C23.51 683.862 45.6675 684.396 67.5856 684.486C67.317 689.089 66.9965 693.693 66.9798 698.305C58.9385 697.706 50.8859 697.418 42.8223 697.442C43.1453 702.776 42.6947 708.337 42.6696 713.702C42.6238 724.575 42.671 735.448 42.8111 746.32C42.9657 753.5 42.8482 760.78 43.4727 767.933C37.34 767.746 31.1619 767.899 25.0242 767.901C26.0095 753.086 25.7718 738.559 25.7601 723.736C25.7532 714.983 26.0634 706.235 26.0359 697.481C17.9262 697.249 9.08103 697.399 1.03613 698.584C1.38653 694.011 0.697933 688.997 1.60923 684.538Z" fill="#4A5565"/>
<path d="M617.733 608.741L637.867 608.692C640.087 619.778 644.019 630.602 646.987 641.511C648.251 646.159 649.104 650.946 650.035 655.67C652.521 639.717 658.481 624.697 660.993 608.722L678.064 608.698C675.55 622.091 666.268 640.461 661.382 653.954C656.339 665.201 655.286 679.584 647.367 689.226C641.216 696.717 633.066 697.291 624.143 698.097C623.694 693.924 623.302 689.745 622.968 685.56C625.524 685.315 627.936 685.056 630.352 684.124C634.404 682.561 637.811 679.887 639.542 675.815C640.936 672.539 641.027 669.179 640.482 665.718C638.809 655.1 633.233 644.159 628.901 634.377C625.084 625.873 621.362 617.328 617.733 608.741Z" fill="#4A5565"/>
<path d="M508.251 707.027L514.435 706.794C513.141 716.711 511.54 742.108 515.721 750.922C516.907 753.423 518.901 755.412 521.583 756.235C526.789 757.832 532.659 755.571 537.299 753.255C537.632 738.12 537.767 722.603 536.709 707.499C542.499 707.064 548.358 707.005 554.162 706.791C553.512 716.655 553.561 726.587 553.479 736.471C553.43 746.814 553.659 757.705 555.401 767.927C550.339 767.822 545.266 768.175 540.211 768.416C539.579 766.368 539.218 764.402 538.908 762.288C533.448 766.366 528.389 769.084 521.471 769.564C515.266 769.994 508.306 769.358 503.517 764.946C494.647 756.775 497.643 738.04 497.379 727.123C497.221 720.63 496.56 714.109 496.215 707.617C500.203 707.234 504.247 707.187 508.251 707.027Z" fill="#4A5565"/>
<path d="M284.518 705.01C290.849 704.398 298.11 704.962 303.286 709.034C306.487 711.552 308.325 715.129 309.215 719.051C310.401 724.278 309.862 729.891 309.769 735.214C309.61 744.28 309.047 758.963 310.124 767.515C310.142 767.652 310.162 767.787 310.181 767.923L292.555 767.88C293.569 758.365 296.145 732.52 292.435 724.033C291.323 721.488 289.437 719.509 286.815 718.521C281.907 716.672 276.568 718.562 272.088 720.662C271.083 721.121 269.955 721.604 269.197 722.439C268.581 723.117 268.579 724.042 268.521 724.903C268.133 730.63 268.663 736.681 268.744 742.435C268.863 750.934 268.707 759.442 268.954 767.938C263.101 767.814 257.229 767.899 251.373 767.888C252.578 746.372 253.484 728.841 249.456 707.456C254.949 706.719 260.454 706.095 265.972 705.584C266.326 708.036 266.804 710.481 267.228 712.922C272.28 708.558 277.874 705.819 284.518 705.01Z" fill="#4A5565"/>
<path d="M402.617 606.856C409.725 606.436 417.57 606.373 423.272 611.37C426.073 613.826 427.648 617.114 428.424 620.708C429.903 627.561 428.906 634.952 428.85 641.918C428.778 651.195 428.938 660.467 429.329 669.735C423.574 669.509 417.742 669.689 411.979 669.659C412.852 660.58 414.941 634.445 411.924 626.469C410.87 623.681 408.851 621.374 406.043 620.278C401.446 618.484 396.337 620.2 392.035 622.008L387.916 624.61C387.592 629.989 387.877 635.522 387.884 640.92L387.975 669.752C382.229 669.507 376.393 669.715 370.637 669.713C371.236 664.657 371.204 659.392 371.379 654.302C371.906 638.963 372.013 624.279 368.614 609.206C374.184 608.449 379.769 607.821 385.368 607.321C385.622 609.688 386.115 612.068 386.514 614.416C392.054 610.878 395.942 608.078 402.617 606.856Z" fill="#4A5565"/>
<path d="M601.395 705.025C601.623 704.994 601.854 704.983 602.083 704.967C608.597 704.502 615.851 705.1 620.926 709.692C623.568 712.082 625.064 715.165 625.826 718.604C627.392 725.666 626.443 733.378 626.394 740.576C626.404 749.701 626.52 758.824 626.741 767.946C621.043 767.817 615.346 767.963 609.646 767.759C609.364 756.276 613.301 734.379 609.276 724.273C608.234 721.658 606.378 719.59 603.729 718.553C598.452 716.489 592.754 718.823 587.951 721.038C587.351 721.429 586.659 721.833 586.138 722.325C585.531 722.898 585.458 723.521 585.394 724.309C585.028 728.791 585.479 733.585 585.512 738.102L585.71 767.958C579.867 767.767 573.984 767.883 568.136 767.863C569.837 749.395 570.46 725.636 566.285 707.476C571.812 706.72 577.353 706.081 582.908 705.559C583.234 708.01 583.647 710.456 584.02 712.901C589.46 708.648 594.462 705.82 601.395 705.025Z" fill="#4A5565"/>
<path d="M391.008 683.354C397.837 682.839 404.018 683.767 410.693 685.035C409.896 690.063 409.177 695.102 408.536 700.153C401.936 697.561 393.344 696.68 386.417 698.396C380.471 699.868 375.716 703.637 372.647 708.902C368.374 716.231 367.169 725.776 369.341 733.969C371.239 741.129 375.614 747.905 382.108 751.667C391.633 757.185 404.07 755.215 414.158 752.56C413.852 755.999 413.673 759.458 413.436 762.903L413.08 767.458C410.682 768.011 408.265 768.462 405.83 768.813C392.253 770.649 376.903 769.695 365.678 761.01C356.97 754.273 351.814 744.407 350.509 733.568C349.02 721.21 352.265 708.982 360.016 699.219C368.029 689.125 378.448 684.804 391.008 683.354Z" fill="#4A5565"/>
<path d="M119.283 606.131C120.688 606.067 122.11 606.107 123.516 606.159C130.384 606.412 136.999 608.51 141.668 613.779C148.573 621.57 148.253 631.674 147.691 641.418C133.93 641.217 120.138 641.609 106.378 641.862C107.288 646.702 109.477 651.312 113.368 654.476C122.928 662.249 135.791 656.823 146.442 655.87L147.095 655.817C146.316 659.921 146.158 664.208 145.465 668.355C141.396 669.637 137.317 670.551 133.071 671.01C121.88 672.22 109.727 671.685 100.658 664.201C94.2395 658.903 90.4895 651.257 89.7265 643.029C88.8401 633.462 91.6125 623.433 97.8845 616.077C103.648 609.317 110.631 606.79 119.283 606.131ZM119.942 617.537C115.832 618.045 112.787 618.912 110.136 622.396C107.901 625.334 106.987 628.915 106.263 632.467L120.142 632.189L132.811 631.925C132.453 627.678 132.148 622.986 128.661 619.987C126.217 617.885 123.039 617.575 119.942 617.537Z" fill="#4A5565"/>
<path d="M331.131 606.132C332.489 606.066 333.887 606.095 335.246 606.151C342.079 606.43 348.582 608.36 353.312 613.589C360.426 621.456 360.062 631.504 359.492 641.396C345.723 641.231 331.927 641.612 318.16 641.856C319.329 647.401 321.606 652.197 326.552 655.369C335.768 661.279 348.927 657.843 358.799 655.633C358.447 659.875 357.999 664.062 357.381 668.274C355.371 668.974 353.327 669.553 351.248 670.012C349.169 670.471 347.071 670.807 344.953 671.019C333.916 672.205 321.746 671.759 312.75 664.426C306.22 659.103 302.357 651.594 301.616 643.242C300.746 633.419 303.235 623.712 309.661 616.116C315.413 609.318 322.476 606.814 331.131 606.132ZM331.857 617.538C327.853 618.005 324.606 618.831 321.998 622.195C319.719 625.134 318.798 628.894 318.086 632.471L330.834 632.227L344.649 631.903C344.291 627.642 344.03 623.048 340.529 620.037C338.066 617.917 334.973 617.621 331.857 617.538Z" fill="#4A5565"/>
<path d="M187.208 706.919L202.293 706.975C203.822 714.742 206.625 722.447 208.996 729.997C211.392 737.624 213.477 745.229 215.43 752.984C217.951 737.278 224.69 722.632 227.159 706.923L243.231 706.959C242.282 711.219 240.768 715.268 239.301 719.369C234.303 734.065 224.148 753.071 221.778 767.957C216.789 767.832 211.782 767.9 206.791 767.887C202.874 752.798 197.123 738.33 192.898 723.329C190.854 727.274 179.615 763.629 179.274 767.931C174.182 767.862 169.09 767.863 163.998 767.934C161.621 754.091 154.054 737.125 149.101 723.598C147.172 718.332 144.644 712.522 143.922 706.952C150.065 707.027 156.219 706.939 162.363 706.928C165.459 722.565 171.047 737.601 174.191 753.273C176.235 737.323 184.131 722.7 187.208 706.919Z" fill="#4A5565"/>
<path d="M8.82535 586.249C14.9977 586.208 21.17 586.201 27.3424 586.227C26.2236 597.076 26.56 608.435 26.4567 619.35L58.6732 619.372C58.7141 608.337 58.2567 597.272 57.9773 586.239L76.2759 586.219C75.1092 614.048 75.0953 641.878 76.2341 669.709L72.7639 669.705L57.781 669.692C58.3323 665.543 58.1608 661.09 58.2411 656.892L58.5639 632.914C47.9008 632.848 37.2377 632.836 26.5743 632.879C26.6389 640.848 26.749 648.817 26.9046 656.786C26.9791 660.999 26.6942 665.548 27.4491 669.697L8.80615 669.686C10.0405 641.874 10.0469 614.061 8.82535 586.249Z" fill="#4A5565"/>
<path d="M576.668 606.112C584.553 605.15 592.891 607.027 599.333 611.721C605.776 616.416 609.698 623.002 610.918 630.855C612.387 640.318 611.182 650.906 605.369 658.769C599.89 666.179 591.972 670.352 582.995 671.756C573.664 672.436 565.533 671.158 557.989 665.273C551.682 660.352 548.248 653.377 547.338 645.511C546.254 636.141 547.917 625.912 553.898 618.383C559.634 611.162 567.625 607.197 576.668 606.112ZM578.669 617.954C574.363 618.513 571.422 619.687 568.612 623.236C564.289 628.697 563.362 636.447 564.268 643.173C564.976 648.428 567.242 654.04 571.546 657.346C574.47 659.593 577.096 659.919 580.629 660.045C584.955 659.232 587.919 657.709 590.554 653.996C594.708 648.144 595.251 640.103 593.994 633.226C593.069 628.165 590.474 622.949 586.124 620.017C583.761 618.425 581.463 618.075 578.669 617.954Z" fill="#4A5565"/>
<path d="M453.15 704.253C453.631 704.211 454.112 704.18 454.595 704.159C455.077 704.139 455.559 704.13 456.042 704.131C456.525 704.133 457.007 704.146 457.489 704.169C457.971 704.193 458.452 704.227 458.933 704.272C459.414 704.318 459.893 704.374 460.371 704.441C460.849 704.508 461.325 704.586 461.799 704.675C462.274 704.764 462.746 704.863 463.216 704.973C463.686 705.083 464.153 705.204 464.617 705.335C465.082 705.466 465.543 705.608 466.001 705.76C466.459 705.913 466.913 706.076 467.364 706.248C467.815 706.422 468.261 706.605 468.703 706.797C469.146 706.991 469.583 707.194 470.016 707.407C470.449 707.62 470.878 707.843 471.301 708.075C471.724 708.308 472.141 708.55 472.553 708.801C472.965 709.052 473.371 709.313 473.771 709.583C474.172 709.853 474.566 710.131 474.953 710.419C481.506 715.364 485.136 722.277 486.156 730.356C487.36 739.891 485.852 750.14 479.782 757.846C473.644 765.639 465.399 769.11 455.78 770.209C447.455 770.717 439.381 768.669 432.836 763.367C426.375 758.135 423.129 751.233 422.305 743.043C421.361 733.65 423.216 723.549 429.343 716.136C435.465 708.728 443.742 705.092 453.15 704.253ZM451.944 716.43C447.849 717.287 444.981 719.303 442.655 722.814C438.736 728.729 438.219 737.297 439.781 744.061C440.886 748.848 443.594 753.832 447.862 756.455C450.896 758.319 453.661 758.303 457.073 758.144C461.43 756.945 464.354 754.552 466.61 750.612C470.14 744.445 470.452 736.06 468.557 729.319C467.26 724.705 464.582 720.037 460.23 717.744C457.525 716.319 454.91 716.285 451.944 716.43Z" fill="#4A5565"/>
<path d="M104.042 704.249C111.906 703.634 120.004 705.775 126.249 710.652C132.436 715.485 136.216 722.442 137.153 730.215C138.339 740.057 136.858 750.208 130.527 758.121C124.43 765.742 116.166 769.126 106.711 770.209C98.4125 770.714 90.3885 768.678 83.839 763.423C77.4386 758.289 73.9719 751.061 73.1739 742.959C72.2507 733.587 74.1602 723.549 80.2747 716.163C86.4362 708.721 94.5785 705.118 104.042 704.249ZM102.865 716.439C98.8435 717.277 95.9725 719.224 93.6905 722.683C89.7645 728.633 89.1855 737.04 90.7205 743.856C91.8165 748.72 94.4185 753.781 98.7735 756.454C101.768 758.293 104.663 758.353 108.044 758.11C112.445 756.968 115.236 754.56 117.506 750.628C121.106 744.39 121.523 736.338 119.547 729.511C118.194 724.833 115.625 720.076 111.174 717.733C108.429 716.288 105.861 716.296 102.865 716.439Z" fill="#4A5565"/>
<path d="M489.822 586.098C499.407 585.59 510.078 585.039 519.4 587.617C524.513 589.031 529.083 591.97 531.638 596.747C534.28 601.687 534.411 608.291 532.672 613.578C529.993 621.726 523.616 625.072 516.514 628.672C531.699 634.492 535.081 656.138 541.591 669.216L541.788 669.601C535.3 669.776 528.65 670.03 522.181 669.477C521.184 665.361 519.476 661.293 518.059 657.297C515.916 651.851 513.844 644.201 509.48 640.142C504.753 635.744 497.341 636.38 491.357 636.483C491.359 647.568 491.526 658.651 491.858 669.732C485.678 669.488 479.516 669.879 473.325 669.475C474.497 656.475 474.549 643.532 474.57 630.49C474.592 615.687 474.442 601.069 473.459 586.295C478.901 586.111 484.373 586.197 489.822 586.098ZM496.084 598.247L490.431 598.972C490.988 607.463 491.266 615.963 491.265 624.472C497.574 624.652 504.395 625.102 510.218 622.234C513.428 620.51 515.753 618.118 516.874 614.569C516.999 614.171 517.105 613.768 517.191 613.359C517.277 612.95 517.342 612.539 517.387 612.124C517.432 611.709 517.457 611.292 517.462 610.875C517.466 610.458 517.45 610.041 517.413 609.626C517.376 609.21 517.319 608.797 517.242 608.387C517.165 607.976 517.068 607.571 516.951 607.17C516.834 606.77 516.697 606.376 516.541 605.989C516.385 605.602 516.21 605.223 516.017 604.853C514.322 601.667 511.34 599.739 507.913 598.829C504.202 597.844 499.869 597.823 496.084 598.247Z" fill="#4A5565"/>
<path d="M277.842 579.404C282.069 579.134 286.34 579.161 290.576 579.076C289.701 594.173 289.301 609.283 289.375 624.406C289.449 639.528 289.997 654.633 291.02 669.721C285.887 669.761 280.756 669.912 275.629 670.174L275.032 665.074C272.784 666.682 270.434 668.178 267.884 669.264C261.109 672.149 252.964 672.303 246.123 669.572C238.89 665.896 233.846 660.593 231.256 652.795C228.187 643.556 229.146 631.816 233.492 623.133C236.979 616.167 242.34 610.266 249.908 607.815C257.834 605.247 266.325 606.328 273.625 610.059C273.751 599.866 272.708 589.778 272.293 579.617L277.842 579.404ZM262.727 618.364C258.278 618.597 255.284 619.489 252.183 622.964C247.569 628.135 246.289 635.654 246.857 642.372C247.309 647.722 249.382 653.289 253.677 656.732C255.328 658.056 257.045 658.735 259.087 659.206C263.571 659.389 270.331 659.412 273.656 655.901C275.73 653.711 274.108 628.323 273.696 623.957C273.593 622.869 273.577 621.784 273.001 620.824C270.079 618.44 266.323 618.433 262.727 618.364Z" fill="#4A5565"/>
<path d="M732.707 579.403C736.908 579.118 741.159 579.165 745.37 579.093C743.861 609.293 743.974 639.487 745.71 669.675C740.571 669.703 735.413 669.964 730.274 670.12L729.983 664.854C727.263 666.823 724.582 668.565 721.424 669.755C714.69 672.291 706.633 672.129 700.077 669.176C692.964 665.288 688.054 659.635 685.704 651.77C682.829 642.155 684.254 630.26 689.11 621.508C692.794 614.869 698.506 609.455 705.956 607.443C713.446 605.42 721.678 606.297 728.366 610.177C728.321 599.934 727.757 589.825 727.05 579.612L732.707 579.403ZM713.309 618.699C708.729 620.419 705.851 623.41 703.87 627.85C700.956 634.379 700.617 642.52 703.209 649.207C704.743 653.164 707.358 656.669 711.348 658.384C713.317 659.23 715.345 659.314 717.457 659.345C722.192 658.958 725.779 658.128 729.512 655.035C729.512 643.795 729.647 632.339 728.486 621.154C723.49 618.203 718.94 618.082 713.309 618.699Z" fill="#4A5565"/>
<path d="M175.912 578.648C176.111 578.76 176.31 579.323 176.414 579.534L176.035 579.765L176.377 579.714C175.862 590.597 175.665 601.487 175.787 612.382C177.035 611.53 178.288 610.652 179.605 609.909C185.966 606.323 194.574 605.467 201.577 607.482C208.173 609.38 213.506 614.326 216.736 620.286C221.299 628.703 221.695 639.782 218.957 648.85C216.221 657.911 211.012 664.67 202.666 669.1C196.8 671.605 187.835 672.85 181.842 670.129C180.048 669.314 177.742 667.612 175.788 667.519C175.552 667.961 175.271 668.628 174.922 668.979C173.271 670.638 161.68 669.694 159.068 669.652C159.425 666.688 159.293 663.552 159.377 660.565C159.603 652.514 159.64 644.549 159.59 636.498C159.528 626.668 159.833 616.826 159.641 606.999C159.387 597.851 158.864 588.719 158.073 579.602C164.003 579.113 169.968 578.922 175.912 578.648ZM185.312 618.691C181.314 619.365 178.712 620.783 175.581 623.378C175.338 633.979 174.867 646.164 176.535 656.618C181.028 659.364 186.307 660.094 191.468 658.886C192.281 658.695 193.066 658.433 193.849 658.146C198.35 655.613 200.914 651.682 202.305 646.787C204.234 639.997 203.919 631.96 200.275 625.773C198.323 622.458 195.327 619.846 191.537 618.913C189.559 618.426 187.335 618.557 185.312 618.691Z" fill="#4A5565"/>
<path d="M431.603 288.958C439.973 293.649 447.999 299.715 456.012 305.033C461.475 308.658 477.54 318.318 480.953 322.071C481.527 341.13 480.934 360.406 480.929 379.486C480.924 398.059 481.531 416.844 480.794 435.391C482.472 431.981 484.287 428.644 486.24 425.382C488.193 422.121 490.276 418.945 492.49 415.855C494.704 412.765 497.041 409.772 499.502 406.874C501.963 403.976 504.538 401.185 507.228 398.499C534.396 371.013 571.08 356.721 609.216 353.511C615.925 352.946 622.824 352.983 629.555 352.954C666.451 352.793 700.583 366.393 726.722 392.482C739.806 405.541 749.502 422.389 756.359 439.45C757.271 441.721 759.383 445.892 759.204 448.328C759.158 448.957 758.832 449.048 758.399 449.434C756.88 448.851 754.962 445.119 753.934 443.644C750.379 438.544 746.323 433.988 741.841 429.684C729.469 417.801 714.831 409.275 698.931 403.03C688.454 399.381 677.872 396.471 666.855 394.996C644.717 392.032 612.559 391.982 591.478 399.006C578.968 403.175 567.485 409.95 557.066 417.952C509.099 454.793 489.645 519.725 482.051 577.156C473.788 576.635 465.316 576.978 457.035 576.973C447.519 576.968 437.898 576.672 428.394 577.131C428.692 521.916 429.386 466.706 430.476 411.501C430.527 407.65 430.615 403.899 430.605 400.071C430.592 395.272 430.573 390.427 430.605 385.549C430.64 353.349 430.973 321.152 431.603 288.958Z" fill="#4A5565"/>
<path d="M48.4752 0.89136C60.5794 -0.23914 73.6134 5.34536 82.849 12.8289C83.9149 26.9308 83.1305 41.3872 83.4072 55.5445L84.6963 172.889L87.9436 432.099C95.5795 419.105 104.177 407.36 115 396.8C115.835 395.989 116.68 395.187 117.534 394.395C118.387 393.603 119.25 392.821 120.121 392.048C120.992 391.276 121.872 390.513 122.76 389.76C123.649 389.008 124.546 388.265 125.451 387.532C126.356 386.8 127.27 386.077 128.191 385.365C129.112 384.653 130.042 383.952 130.979 383.261C131.916 382.57 132.861 381.89 133.813 381.22C134.766 380.55 135.726 379.891 136.693 379.243C137.661 378.595 138.636 377.958 139.617 377.332C140.599 376.706 141.588 376.091 142.583 375.487C143.579 374.883 144.581 374.291 145.59 373.709C146.599 373.128 147.615 372.558 148.636 372C149.658 371.442 150.686 370.895 151.72 370.359C152.755 369.825 153.795 369.301 154.841 368.789C155.887 368.277 156.938 367.777 157.995 367.289C159.052 366.801 160.115 366.325 161.183 365.861C162.251 365.397 163.324 364.945 164.402 364.505C165.48 364.065 166.563 363.638 167.651 363.222C168.739 362.807 169.831 362.404 170.928 362.012C172.025 361.622 173.126 361.243 174.231 360.877C175.336 360.511 176.446 360.158 177.559 359.816C178.672 359.476 179.79 359.147 180.911 358.831C182.032 358.515 183.156 358.212 184.283 357.921C185.41 357.631 186.541 357.353 187.675 357.088C188.809 356.823 189.946 356.571 191.085 356.331C192.225 356.092 193.367 355.866 194.512 355.652C195.656 355.438 196.803 355.237 197.952 355.049C199.101 354.861 200.253 354.687 201.406 354.525C202.559 354.363 203.713 354.214 204.87 354.078C206.027 353.942 207.184 353.82 208.343 353.71C209.502 353.6 210.663 353.504 211.824 353.42C212.986 353.336 214.148 353.266 215.311 353.208C220.739 352.892 226.339 353.133 231.781 353.235C239.42 353.378 247.052 354.57 254.591 355.718C262.191 356.875 269.877 358.012 277.223 360.35C294.767 365.937 310.801 378.416 323.463 391.54C369.744 439.51 379.68 513.557 378.613 577.342C375.792 577.161 372.974 577.206 370.149 577.229C370.88 541.491 363.595 494.172 346.27 462.521C343.872 457.861 341.355 453.312 338.497 448.916C321.348 422.543 296.604 404.479 265.578 397.966C256.22 396.002 246.968 395.164 237.417 395.086C214.42 394.897 197.824 399.108 178.364 411.953C138.042 438.569 116.048 487.93 103.937 533.023C99.9386 547.914 97.1846 562.965 94.1016 578.057C83.5802 577.652 72.9372 577.969 62.4039 577.97L6.48306 578.028C6.32756 559.007 7.04056 539.94 7.36886 520.921L9.51376 404.722L16.2807 13.4555C26.4404 6.35086 36.0636 2.15906 48.4752 0.89136Z" fill="#4A5565"/>
</g>
</g>
<defs>
<clipPath id="clip0_32_179">
<rect width="760" height="770" fill="white" transform="translate(0.137451 0.571289)"/>
</clipPath>
</defs>
</svg>
