<svg width="2464" height="739" viewBox="0 0 2464 739" fill="none" xmlns="http://www.w3.org/2000/svg">
<g clip-path="url(#clip0_32_264)">
<path d="M2464 702.22C2464 703.989 2464 706.207 2463.31 709.141C2462.79 712.117 2462.26 714.321 2461.58 715.332C2456.19 714.798 2439.64 714.56 2412.04 714.56H2404.87L2404.19 712.341L2404.65 693.643C2405.13 687.213 2405.4 678.832 2405.4 668.725C2405.4 658.365 2405.1 650.012 2404.65 643.61L2404.19 624.631L2404.87 622.651H2420.16L2420.92 624.631C2420.16 639.483 2419.68 654.181 2419.68 668.725C2419.68 679.857 2419.92 692.913 2420.92 707.653C2436.11 708.172 2447.47 707.933 2454.62 706.684C2458.82 705.968 2461.81 704.494 2464 702.22ZM1467.05 303.506L1464.82 318.541L1231.76 427.394C1235.24 435.255 1242.41 448.072 1253.13 465.535C1272.86 497.894 1303.49 513.841 1344.34 513.841C1392.12 513.841 1432.34 492.643 1464.8 450.304C1469.77 459.668 1469.55 473.93 1464.13 492.882C1418.8 532.301 1374.68 552.011 1331.58 552.011C1279.27 552.011 1236.97 535.474 1204.41 503.018C1171.6 470.252 1155.4 429.092 1155.4 379.144C1155.4 330.361 1170.67 289.945 1201.4 257.938C1233.98 224.204 1274.4 207.176 1322.65 207.176C1366.25 207.176 1401.76 221.214 1429.37 248.996C1435.75 255.945 1448.35 274.223 1467.05 303.506ZM1403.48 326.88C1399.56 306.918 1392.15 288.471 1381.36 271.499C1365.08 245.585 1339.96 232.571 1305.7 232.571C1275.14 232.571 1252.98 246.315 1239.2 273.661C1227.37 298.13 1221.23 330.375 1220.7 370.23C1220.7 383.791 1221.88 395.611 1224.37 406.238L1403.48 326.88ZM1800.43 303.506L1798 318.541L1565.14 427.394C1568.59 435.255 1575.69 448.072 1586.6 465.535C1606.24 497.894 1636.62 513.841 1677.48 513.841C1725.26 513.841 1765.67 492.643 1798.25 450.304C1803.11 459.668 1802.89 473.93 1797.51 492.882C1751.9 532.301 1707.82 552.011 1664.92 552.011C1612.7 552.011 1570.06 535.474 1537.48 503.018C1504.99 470.252 1488.69 429.092 1488.69 379.144C1488.69 330.361 1504.03 289.945 1534.54 257.938C1567.09 224.204 1607.76 207.176 1656.03 207.176C1699.45 207.176 1734.89 221.214 1762.72 248.996C1769.17 255.945 1781.74 274.223 1800.43 303.506ZM1736.66 326.88C1732.71 306.918 1725.3 288.471 1714.51 271.499C1698.23 245.585 1673.07 232.571 1639.08 232.571C1608.56 232.571 1586.15 246.315 1572.33 273.661C1560.51 298.13 1554.36 330.375 1553.82 370.23C1553.82 383.791 1555.1 395.611 1557.56 406.238L1736.66 326.88ZM753.768 661.607L736.762 687.747L760.172 713.661H580.254V677.176H551.943V661.663H753.754L753.768 661.607ZM200.322 687.522H570.943V739H200.322V687.522ZM16.5004 661.607H218.101V676.923H189.973V713.619H9.90026L33.3239 687.466L16.5004 661.607ZM199.648 107.673C199.648 103.7 204.03 100.766 209.703 100.766C215.138 100.766 219.575 103.7 219.575 107.673C219.575 111.618 215.152 114.861 209.731 114.861L207.26 114.608C199.662 123.199 198.89 134.023 198.89 134.023V149.493H105.28C105.28 149.493 105.519 138.501 105.28 134.528C104.718 129.896 98.8622 119.241 95.1268 114.875H93.9191C88.2036 114.875 83.7941 111.646 83.7941 107.687C83.7941 103.714 88.1896 100.78 93.9191 100.78C99.3397 100.78 103.735 103.714 103.735 107.687L103.553 108.88C126.667 133.293 144.923 136.227 147.352 107.926H156.508C157 135.062 171.043 134.795 200.098 109.653C199.873 109.161 199.648 108.445 199.648 107.673ZM142.732 98.0991C142.732 94.1403 147.128 90.9396 152.506 90.9396C158.208 90.9396 162.631 94.1403 162.631 98.0991C162.631 101.988 158.222 104.922 152.506 104.922C147.156 104.936 142.732 102.002 142.732 98.0991ZM105.519 161.608C105.519 162.38 104.718 170.27 110.714 172.768C124.224 178.145 149.332 171.477 157.014 206.994C157.505 208.201 159.233 208.692 160.23 206.699C159.247 186.035 171.253 175.955 190.52 170.986C195.927 169.301 201.095 168.009 202.288 164.837C203.271 161.426 200.645 149.325 211.936 149.325C213.396 149.325 217.09 150.321 217.384 154.027C218.129 160.429 212.933 162.099 214.618 164.359C216.654 166.83 215.166 169.273 214.927 169.497C213.2 171.758 212.217 170.775 205.518 173.709C198.146 176.952 194.495 181.332 193.483 184.069C192.711 186.512 192.922 186.049 193.483 189.277C193.708 192.913 200.884 194.654 199.087 195.075C197.135 195.426 193.217 195.847 192.234 197.097C191.223 198.627 187.571 203.245 182.375 203.793C177.18 204.481 177.18 203.498 173.528 205.407C163.46 210.152 161.466 217.522 160.679 220.709C160.244 223.966 159.696 224.682 158.292 223.727C157.028 222.744 157.983 220.99 155.511 217.564C152.815 214.083 150.568 207.738 142.957 207.443C138.014 207.19 128.17 208.397 125.726 204.986C121.261 198.641 117.329 199.595 117.034 197.841C117.034 196.858 121.57 196.381 121.036 192.197C120.559 187.733 118.564 185.038 111.164 181.584C103.763 178.145 97.3456 178.145 96.166 176.404C95.1549 174.65 95.1549 174.186 95.6183 172.207C96.4187 168.796 95.9413 170.284 93.1467 167.785C90.4926 165.104 91.7284 154.224 98.5673 154.715C103.553 154.968 105.519 159.432 105.519 161.608ZM126.681 196.353C127.215 200.283 130.613 203.063 134.363 202.515C138.014 201.982 140.752 198.613 140.205 194.626C139.769 190.906 136.581 188.224 132.579 188.702C128.9 189.263 126.19 192.661 126.681 196.353ZM171.029 193.868C171.52 197.827 175.003 200.55 178.71 200.017C182.404 199.581 185.128 196.072 184.622 192.422C184.131 188.449 180.901 185.726 176.997 186.273C173.248 186.694 170.537 190.26 171.029 193.868ZM211.95 350.998L208.046 366.327C206.305 362.425 201.614 363.843 198.384 365.808L204.282 348.064C207.751 344.175 210.939 345.158 211.95 350.998ZM193.68 407.193C188.302 422.663 171.998 440.239 157.505 451.006C143.463 460.159 155.048 449.771 155.287 449.055C174.231 428.868 179.904 420.024 187.557 402.027C190.773 398.84 196.685 402.041 193.68 407.193ZM215.629 297.358V313.375C212.933 310.385 210.237 310.385 207.498 313.375V297.358C209.731 292.402 213.214 291.981 215.629 297.358ZM201.347 251.537C208.495 257.7 209.478 262.838 210.447 268.762C209.984 268.074 204.058 262.122 201.347 268.27C199.887 262.824 197.921 258.373 193.947 254.962C192.472 254.724 191.7 245.641 201.347 251.537ZM185.128 297.133L185.816 313.094C183.162 310.441 180.395 310.441 177.98 313.6L177.208 297.835C179.174 292.697 182.39 291.981 185.128 297.133ZM165.65 253.53C173.009 259.188 175.972 262.557 178.191 268.509C177.671 267.807 167.097 259.384 166.17 269.281C164.457 263.848 162.449 260.339 158.474 257.461C156.719 257.166 155.75 248.322 165.65 253.53ZM552.238 107.673C552.238 103.7 556.676 100.528 562.307 100.528C567.77 100.528 572.221 103.7 572.221 107.673C572.221 108.445 572.221 108.88 571.926 109.653C600.742 134.514 614.841 135.034 615.53 107.926H624.405C626.89 136.002 645.076 133.068 668.275 108.88L667.966 107.673C667.966 103.7 672.684 100.528 678.133 100.528C683.525 100.528 687.907 103.7 687.907 107.673C687.907 111.618 683.511 114.861 678.133 114.861L676.63 114.608C672.951 119.016 666.983 129.545 666.786 134.514C666.309 138.487 666.786 149.479 666.786 149.479H573.162V134.079C573.162 134.079 572.432 123.228 564.54 114.636L562.321 114.861C556.662 114.861 552.238 111.618 552.238 107.673ZM609.351 97.8324C609.351 94.1403 613.816 90.9536 619.209 90.9536C624.629 90.9536 629.348 94.1543 629.348 97.8324C629.348 101.721 624.629 104.936 619.209 104.936C613.816 104.936 609.351 101.721 609.351 97.8324ZM666.562 161.411C666.295 159.432 668.513 154.968 673.204 154.505C680.113 154.252 681.573 165.118 678.849 167.574C676.139 170.27 675.38 168.585 676.139 171.996C676.63 173.976 676.63 174.467 675.633 176.404C674.664 178.131 667.98 178.131 660.664 181.556C653.263 184.771 651.241 187.705 650.805 191.888C650.272 196.395 654.962 196.633 654.695 197.841C654.695 199.287 650.51 198.613 646.087 204.762C643.643 208.173 633.771 207.218 628.814 207.401C621.217 207.695 618.998 213.858 616.527 217.522C613.83 220.948 615.024 222.702 613.521 223.685C612.342 224.415 611.836 223.938 611.064 220.709C610.348 217.508 608.396 210.138 598.509 205.183C594.872 203.456 594.535 204.186 589.382 203.751C584.214 202.965 580.745 198.543 579.552 197.055C578.526 195.566 574.833 195.398 572.881 194.836C570.859 194.57 578.035 192.871 578.512 188.954C578.765 185.712 579.271 186.47 578.302 183.746C577.291 181.107 573.864 176.924 566.45 173.667C559.554 170.733 558.824 171.716 556.816 169.455C556.605 168.95 555.089 166.788 557.069 164.023C559.049 161.791 553.853 160.373 554.415 153.971C554.836 149.984 558.333 149.268 560.06 149.268C571.14 149.044 568.43 161.369 569.679 164.781C570.62 167.967 575.816 168.964 581.237 170.929C600.461 175.899 612.552 185.684 611.794 206.643C612.805 208.327 614.252 207.892 614.757 206.643C622.663 171.238 647.814 177.85 661.338 172.417C667.306 170.27 666.295 162.366 666.562 161.411ZM598.257 193.868C598.734 190.26 596.136 186.694 592.373 186.273C588.708 185.74 585.183 188.449 584.747 192.155C584.242 196.044 586.966 199.581 590.688 199.834C594.353 200.297 597.765 197.616 598.257 193.868ZM642.689 196.353C643.138 192.464 640.456 188.983 636.748 188.66C632.985 188.239 629.587 190.906 629.081 194.598C628.604 198.332 631.342 201.799 635.007 202.221C638.714 202.768 642.141 200.017 642.689 196.353ZM559.863 350.801C560.818 344.835 564.259 344.119 567.418 347.881L573.597 365.583C570.396 363.871 565.733 362.102 563.767 366.075L559.863 350.801ZM578.077 406.94C575.395 401.746 581.293 398.84 584.523 401.746C591.867 420.024 597.527 428.629 616.499 448.83C616.765 449.518 628.323 460.159 614.238 450.781C599.745 440.225 583.54 422.649 578.077 406.94ZM556.423 297.133C558.642 291.981 562.054 292.402 564.259 297.358V313.123C561.857 310.189 559.133 310.189 556.423 313.123V297.133ZM570.41 251.537C580.057 245.641 579.566 254.471 577.81 255.018C574.089 258.205 572.221 262.599 570.662 268.313C567.741 262.122 562.054 268.06 561.549 268.509C562.588 262.838 563.543 257.461 570.41 251.537ZM586.699 297.133C589.396 291.981 592.864 292.697 594.914 297.596L593.903 313.403C591.404 310.427 588.946 310.189 585.983 313.109L586.699 297.133ZM606.416 253.53C616.232 248.027 615.038 256.984 613.578 257.18C609.66 260.353 607.665 263.862 605.91 269.281C604.688 259.384 594.339 267.751 593.917 268.27C595.827 262.543 599.085 259.188 606.416 253.53ZM504.422 0.575567C531.777 5.19414 534.432 10.1496 535.934 12.3677C537.647 17.8426 536.931 23.7106 535.934 34.8148C535.934 38.4788 529.278 44.4029 529.278 43.8975C528.014 27.4166 526.02 32.3581 520.136 27.178C512.061 18.6989 505.882 7.70698 504.422 0.575567ZM712.398 33.5654C720.557 37.2153 717.074 49.3584 715.838 50.7903C709.421 63.3545 697.316 71.4967 675.142 72.2547C681.854 69.04 691.712 67.0746 695.406 50.5516C697.849 37.2013 702.483 30.5752 712.398 33.5654ZM264.906 0C263.403 7.17353 257.238 18.2497 249.416 26.6445C243.266 31.8246 241.229 26.8692 240.036 43.1675C240.036 43.8835 233.351 37.9734 233.351 34.2673C232.368 23.2192 231.891 17.2951 233.351 11.9184C234.854 9.6583 237.55 4.773 264.906 0ZM57.1547 33.0319C67.069 30.0979 71.4364 36.7801 73.9641 50.0322C77.868 66.5552 87.7823 68.4644 94.1719 71.7213C72.2649 70.7386 59.9212 62.8491 53.7563 50.2849C52.4925 48.5582 48.8132 36.7801 57.1547 33.0319ZM515.263 29.8593C519.673 32.0212 521.891 36.5415 523.436 43.8835C524.363 47.5475 529.587 49.5128 540.611 48.5301C538.448 51.2395 536.004 52.9662 535.007 54.9456C532.016 64.3231 530.05 74.8939 528.604 86.9527C527.059 87.2054 525.388 75.6379 525.388 75.6379C520.445 79.7933 514.083 83.5415 507.146 86.9527L501.964 88.9321C493.103 97.1164 485.239 111.871 473.387 125.895C466.717 131.342 458.796 131.524 451.185 131.342C449.514 131.833 438.392 128.871 438.392 128.871C438.631 129.124 453.165 122.961 453.165 122.961C456.844 120.729 462.504 117.781 466.731 111.379C470.887 103.7 473.626 92.933 474.581 78.3613C474.581 78.3613 473.092 61.8243 482.754 52.4889C483.751 50.7762 484.987 49.2742 486.208 46.5788C487.669 49.0355 487.669 50.0322 488.413 51.7168C491.615 55.6475 493.581 57.3882 495.814 62.0911C496.038 62.821 496.993 63.0597 497.836 63.8458C497.288 57.9217 497.597 52.9662 499.254 48.5161C502.175 40.7108 510.797 32.7933 515.263 29.8593ZM670.788 36.7801C680.352 35.0254 687.738 37.454 691.923 43.8835C691.712 48.3055 692.429 71.244 664.062 67.7765C659.442 62.8491 653.249 59.129 649.556 60.4065C647.309 63.0737 649.556 66.0498 653.712 69.7559C656.451 73.2093 656.24 75.9047 656.24 78.4175C636.552 81.3094 620.248 68.5206 616.063 46.8315C613.409 40.0089 605.236 34.8148 597.077 29.6347C614.069 28.3572 632.788 31.5579 636.229 28.3572C642.38 22.2085 645.371 21.0293 651.241 19.5131C653.712 19.5131 663.57 20.4677 668.303 22.4892C672.965 22.4892 677.908 21.2398 682.079 19.2745C681.124 25.4232 677.361 31.3333 670.788 36.7801ZM98.5673 36.2467C91.925 30.8139 88.4845 24.6652 87.2487 18.6989C91.4194 20.7345 96.3906 21.6891 101.109 21.6891C105.757 20.0045 115.615 18.6989 118.045 19.0499C123.985 20.2993 127.201 21.6891 133.113 27.6693C136.567 31.0666 155.301 27.6693 172.545 29.1293C164.134 34.2673 156.298 39.2368 153.531 46.3823C149.122 68.0713 132.86 80.8602 113.397 77.87C113.144 75.4274 112.919 72.7461 115.587 69.2927C119.8 65.5725 122.005 62.5964 119.8 59.9151C116.079 58.6517 110.181 62.3297 105.505 67.2992C77.1238 70.7386 77.6433 47.8282 77.4467 43.3641C81.6175 36.9907 89.0041 34.52 98.5673 36.2467ZM344.234 174.453C343.251 171.477 346.228 170.003 348.433 171.758C353.615 181.57 357.364 186.273 370.129 197.097C370.382 197.63 370.621 199.259 368.669 198.346C358.797 192.464 347.998 183.101 344.234 174.453ZM332.452 143.864C333.154 140.691 335.415 140.466 337.62 142.404L341.805 152.048C339.6 151.051 336.37 150.026 335.12 152.301L332.452 143.864ZM330.5 114.608C332.171 111.871 334.376 112.053 335.907 114.861V123.396C334.137 121.711 332.452 121.711 330.5 123.396V114.608ZM383.175 406.701C383.175 402.532 386.391 399.359 390.337 399.359C394.522 399.359 397.724 402.546 397.724 406.701C397.724 410.646 394.508 414.099 390.337 414.099C386.433 414.099 383.175 410.646 383.175 406.701ZM380.676 454.782C376.996 458.432 374.525 462.391 373.514 466.785L373.317 481.595L375.803 490.706L376.786 514.108C375.999 519.527 368.374 519.274 367.166 520.958C365.186 524.468 366.169 531.81 364.962 535.993C363.206 541.609 359.021 544.655 358.572 545.834C357.589 547.533 358.572 553.513 358.572 553.513C359.541 556.672 359.021 598.576 360.749 601.271C362.251 606.184 363.206 610.901 363.726 615.309C363.459 620.223 361.76 622.651 358.572 622.651C356.058 623.171 354.598 621.444 354.092 617.991C354.373 608.908 353.868 596.582 352.632 580.354C352.421 575.385 351.888 570.724 350.624 566.526L341.51 550.733C340.527 549.063 338.322 546.817 335.401 544.346L337.859 537.678C338.589 534.505 338.842 531.024 338.589 527.29C345.035 527.093 350.202 524.398 354.092 519.934C362.996 512.774 358.038 487.674 347.689 481.314C343.041 478.03 337.325 478.605 330.205 479.812C321.836 482.016 315.896 484.964 314.955 492.377C314.182 498.525 315.657 500.715 320.108 500.477C324.518 499.227 323.535 495.858 327.2 492.587C331.694 489.653 338.055 489.934 342.24 491.633C349.163 496.069 349.894 508.857 347.661 513.069C343.757 517.477 339.277 518.249 333.365 516.55C331.441 515.75 327.888 512.353 329.896 508.843C332.635 506.373 334.067 506.864 335.851 508.156C338.28 510.135 341.046 510.135 342.746 507.636C344.431 504.941 342.998 502.007 339.741 499.789C337.241 498.259 333.604 498.062 328.464 499.269C322.313 502.245 319.814 508.156 320.305 513.588C321.288 520.256 324.279 526.153 329.644 526.616C330.43 529.115 330.43 531.305 329.882 533.523C327.888 538.983 325.698 542.914 323.268 545.61C320.502 547.084 317.117 547.084 312.876 545.834C308.439 543.349 304.998 536.765 302.78 526.405C301.066 519.456 298.131 514.796 293.652 512.409C289.734 511.356 287.515 509.152 287.009 505.685C287.009 500.996 291.714 500.041 298.805 500.743C305.223 498.245 306.712 496.335 309.703 489.695C310.166 489.176 312.357 485.751 312.694 485.273C313.382 483.28 312.876 481.034 312.694 479.082L312.876 475.868C314.604 464.82 320.291 466.294 324.925 463.809C325.431 463.556 326.203 462.882 326.203 461.886C325.698 444.633 334.306 437.459 353.755 436.266C360.636 424.432 368.051 420.445 380.633 424.656V454.782H380.676ZM321.33 556.236C325.304 555.521 328.731 553.738 331.469 551.323C331.919 553.022 332.691 554.257 333.702 555.268C332.691 567.846 332.452 580.859 332.93 594.898L334.685 597.523C335.134 602.52 335.134 603.489 333.913 605.469C332.452 606.451 330.5 605.693 329.475 604.921C326.737 601.987 326.035 600.008 325.304 596.807C324.307 591.36 324.055 584.495 324.055 576.395C323.31 575.651 322.327 573.686 322.032 571.187L321.33 556.236ZM400.434 425.4C403.65 422.663 407.821 421.947 412.525 423.449C416.429 426.383 418.943 430.117 420.642 435.016C431.258 433.753 438.139 435.789 441.58 440.927C442.844 444.141 442.844 447.581 441.58 451.301C450.202 456.453 455.651 460.622 457.87 464.314C461.071 468.989 461.071 473.186 457.575 476.387C456.873 478.661 456.873 480.093 457.575 481.048L465.748 491.436C470.185 496.813 469.483 501.74 464.034 505.952C462.757 508.886 462.757 511.09 464.301 512.606C469.483 523.443 471.421 532.582 470.452 539.91C468.486 544.599 465.284 544.88 460.341 541.187L460.13 516.045C457.617 510.388 450.975 512.606 451.227 518.558V547.35C451.382 551.281 452.688 555.717 453.432 558.876C454.387 561.08 453.924 589.423 453.924 589.423C453.432 594.645 452.421 598.576 450.96 601.285L444.318 609.68C443.307 609.891 442.619 609.68 442.338 608.417C445.034 590.223 445.203 574.177 443.054 560.406L431.258 533.775C430.037 523.176 429.503 514.374 430.472 506.934C432.971 501.768 435.429 498.287 437.648 496.363C439.656 490.692 437.648 488.432 432.003 489.485C424.602 495.1 421.428 504.421 422.158 517.505C424.335 527.346 425.164 534.042 424.335 537.032C422.903 538.239 421.934 539.938 421.681 542.17C420.164 550.06 420.656 557.472 421.428 565.109L419.954 589.998C418.184 593.648 416.008 596.147 413.536 597.593C413.803 568.085 412.806 550.102 410.84 541.216C408.635 532.596 406.655 525.675 411.093 519.99C412.862 513.841 411.865 508.633 411.865 508.633L409.155 498.329C407.863 491.506 408.41 484.038 410.854 475.685C411.345 466.083 407.863 459.443 400.518 455.26V425.4H400.434ZM706.696 326.136C707.202 330.081 707.398 333.787 707.398 337.493L717.551 352.5C717.271 350.801 717.551 344.596 713.353 338.195C711.358 334.264 709.21 330.095 706.696 326.136ZM706.247 361.133C705.727 365.331 704.997 369.514 704.014 373.445L723.927 394.123L723.197 384.549C717.79 377.39 712.917 370.511 706.247 361.133ZM699.548 390.417L696.094 400.539C706.696 410.899 718.001 420.459 730.12 429.612L729.333 422.958C715.571 410.127 706.443 399.345 699.548 390.417ZM690.912 413.327L686.488 423.449C696.613 434.778 713.1 448.072 735.723 462.896C735.512 461.591 735.723 459.19 735.274 457.941C716.077 440.688 701.262 425.962 690.912 413.327ZM681.573 433.753L673.4 450.304C691.712 472.456 715.375 495.086 744.415 518.319C738.489 507.215 735.512 496.616 734.094 486.256C723.463 479.883 706.247 462.124 681.573 433.753ZM625.626 298.34C638.181 279.866 656.226 266.305 676.181 267.498C676.953 264.564 675.381 261.883 671.477 259.132C667.053 257.166 664.329 257.938 657.953 261.111C648.095 261.364 641.425 259.384 637.745 254.962C637.24 253.965 637.745 253.235 638.925 252.997L655.678 246.581V244.097C645.581 246.778 634.965 247.073 623.913 245.346C618.24 244.391 614.799 240.208 613.802 232.571C612.552 229.876 614.785 229.581 616.499 231.083C619.153 235.267 623.38 237.471 629.039 237.471C644.079 237.232 652.996 236.474 655.664 235.014C661.618 233.034 665.045 229.581 665.789 224.401C666.295 222.927 665.564 222.66 663.809 223.194C656.184 226.366 653.937 225.37 649.022 225.173C646.059 225.173 646.284 223.432 649.738 221.678C663.065 214.322 668.949 205.183 667.446 194.598C668.261 192.59 669.202 191.86 670.171 192.59C678.807 208.327 677.543 226.605 667.727 239.857C667.025 240.685 666.772 241.443 666.772 242.412L668.275 244.391C692.892 274.489 709.421 309.459 720.725 348.822C728.617 385.504 737.254 481.062 751.774 507.215C757.181 522.503 763.837 536.007 771.729 548.6C758.192 550.284 743.39 546.368 734.487 543.181L744.795 623.676L688.412 606.451L674.074 567.285C673.33 565.333 672.066 564.351 669.665 566.035C664.75 569.011 649.977 567.032 648.98 567.032C645.034 566.26 643.798 566.526 643.25 568.52C642.801 571.973 642.604 579.343 643.054 590.419C643.601 594.392 646.241 597.565 650.707 600.064L658.36 602.998C662.068 604.008 664.75 605.974 666.239 608.711C667.432 612.6 670.156 616.306 674.383 619.507C676.883 620.251 678.54 620.489 678.077 624.968C677.543 628.351 674.903 630.358 672.431 630.12C668.247 629.628 665.045 627.845 662.601 624.673C658.122 618.524 652.448 613.849 645.567 610.635C638.686 606.928 628.126 606.746 615.235 610.635C600.251 616.053 587.696 622.988 579.818 630.639C578.358 631.537 577.319 631.355 576.574 630.344L580.268 611.35C581.293 608.473 583.02 606.213 585.478 605.511L626.904 594.434L627.62 564.575C618.717 558.426 612.328 550.565 608.143 541.187C603.93 524.987 584.719 516.789 584.719 516.789C577.333 512.423 573.611 509.194 568.724 508.914L567.952 508.24C564.245 507.945 557.616 507.945 548.292 508.492C544.332 509.194 541.355 511.904 538.939 516.621L536.201 524.201C535.246 527.963 534.207 528.89 530.795 532.133C526.82 533.607 523.127 536.541 520.178 540.5L519.181 542.423V543.953C513.522 561.936 465.031 637.069 385.141 668.121C323.043 645.14 264.204 576.69 253.854 544.978V543.714C252.871 542.998 252.099 541.707 251.663 540.78C248.686 536.457 245.246 533.761 241.019 532.287C237.55 529.101 236.581 528.104 235.584 524.454L232.888 516.564C230.669 511.791 227.453 509.391 223.521 508.619C214.435 508.156 207.723 507.903 203.833 508.156L203.328 508.886C198.37 509.405 194.719 512.606 187.066 516.775C187.066 516.775 167.869 524.889 163.67 541.426C159.514 550.748 153.054 558.398 144.46 564.547L145.176 594.589L186.35 605.469C188.765 606.423 190.745 608.374 191.728 611.617L195.155 630.583C194.495 631.509 193.512 631.509 191.995 630.583C184.37 622.918 171.534 616.278 156.508 610.887C143.701 606.662 133.113 607.153 126.457 610.606C119.281 613.807 113.635 618.44 109.212 624.603C106.951 628.042 103.567 629.783 99.3537 630.021C96.9383 630.569 94.1859 628.575 93.6944 625.136C93.231 620.447 95.1689 620.447 97.6124 619.479C101.587 616.474 104.297 612.81 105.771 608.683C106.951 606.128 109.703 603.966 113.411 602.956L121.036 600.022C125.474 597.832 128.226 594.589 128.914 590.7C129.237 579.357 129.237 572.198 128.451 568.744C128.226 566.526 126.99 566.246 122.763 567.046C122.075 567.256 107.007 569.236 102.106 566.246C99.8733 564.575 98.4128 565.558 97.6545 567.537L83.3448 606.465L26.9203 623.69L37.2699 543.363C28.3808 546.34 13.8463 550.284 0 548.572C7.9483 536.288 14.8574 522.46 20.278 507.454C34.8124 481.357 43.3926 385.742 51.0179 348.808C62.6455 309.402 79.16 274.644 103.777 244.377L104.971 242.651C105.294 241.696 104.704 240.671 104.03 239.969C94.1719 226.703 93.2029 208.44 101.516 192.913C102.513 191.902 103.553 192.647 104.507 194.865C102.766 205.506 108.692 214.336 122.244 221.734C125.459 223.474 125.712 225.201 122.735 225.201C117.82 225.692 115.587 226.647 107.92 223.418C106.263 222.716 105.505 223.18 105.954 224.668C106.923 229.581 110.167 233.273 116.079 235.295C118.817 236.516 127.65 237.499 142.718 237.751C148.321 237.751 152.492 235.477 155.273 231.083C157 229.581 159.219 230.115 157.941 232.796C157 240.461 153.517 244.644 147.844 245.388C136.764 247.367 126.176 246.834 116.065 244.125V246.595L133.071 252.983C134.335 253.516 134.531 254.232 134.335 255.187C130.36 259.398 123.718 261.672 114.099 261.378C107.471 257.924 104.704 257.152 100.309 259.174C96.1379 262.108 94.9161 265.322 96.1379 268.495C115.335 267.288 132.804 279.866 145.372 297.821C155.975 306.23 160.693 331.807 157.211 352.514C154.753 398.559 119.295 452.031 50.5264 513.097L37.2278 608.136L46.117 604.753L55.4836 537.004L63.5864 533.761L53.5035 602.745L76.4076 595.923L108.931 511.637L115.84 502.512L124.476 497.908C128.394 496.63 129.883 499.354 128.394 502.316C122.482 507.931 118.817 513.139 117.09 517.561L107.471 542.423C104.957 548.333 105.49 553.05 108.439 556.433C110.686 560.673 124.926 560.42 137.761 555.535C153.307 545.146 154.739 538.043 158.671 527.683C162.406 518.333 168.052 511.834 175.649 508.478C189.495 496.658 187.529 485.371 187.529 483.097L189.018 450.318C189.495 445.405 194.115 430.861 211.922 397.38C230.15 347.895 235.05 307.942 226.217 277.676C223.774 255.776 213.663 243.914 195.66 241.991L171.268 243.409C166.633 241.219 163.432 238.243 161.606 234.34C159.486 230.62 160.188 229.118 163.867 229.89C166.128 233.301 169.302 235.323 173.486 235.491L189.734 234.34C194.691 233.779 198.651 231.869 200.898 227.896C206.515 220.049 203.552 208.945 204.296 196.633C205.083 190.471 210.433 189.263 212.933 194.879C214.435 198.346 214.197 201.28 211.936 203.484C211.655 216.343 211.206 224.92 208.018 230.353C205.027 234.059 205.757 236.277 210.223 236.741C219.308 242.412 226.709 250.512 231.877 261.364C251.579 312.364 241.693 364.601 204.24 438.737C199.831 450.795 198.09 465.339 198.862 482.087L199.044 492.194H227.72L239.277 450.809C240.303 448.1 242.283 446.387 245.428 445.615L253.826 444.127V291.391H343.027C342.044 290.661 346.018 280.821 348.433 279.613C350.891 278.125 375.297 273.647 375.297 273.647V259.37C375.297 257.447 369.357 253.769 366.914 251.298C364.47 248.785 361.76 243.395 359.26 239.183C356.55 234.775 353.601 228.865 352.365 227.124C351.171 225.454 344.459 213.339 342.493 210.18C340.499 206.699 340.049 200.536 339.066 195.875C338.083 191.467 330.683 179.633 327.256 174.2C322.299 178.622 320.108 179.366 312.708 182.567C305.813 184.336 299.17 185.529 292.233 185.319C279.946 184.055 271.548 179.156 267.363 170.761C264.639 163.096 265.608 154.968 270.031 146.124C270.776 145.127 271.309 145.127 272.04 146.124L288.063 168.009C295.224 175.169 302.077 177.906 310.742 176.952C318.817 174.93 320.558 173.442 325.024 170.27L322.566 164.065C320.361 167.574 317.609 169.736 314.168 170.986C310.938 172.474 307.779 172.712 304.788 171.701C300.814 170.48 297.879 168.992 296.671 167.293C298.398 156.695 312.708 149.1 314.646 148.131C314.646 148.131 315.882 147.345 316.907 147.121L315.629 142.446C301.108 141.969 249.388 143.414 224.209 98.3658C212.413 77.1681 202.541 52.3205 188.709 43.2096C178.612 37.7207 170.748 38.2542 160.862 43.9116C166.324 37.7347 171.001 33.8321 176.927 32.3721C181.842 31.572 188.512 32.3721 194.129 32.3721C209.464 35.8255 229.391 56.195 228.408 55.479C230.585 59.143 233.309 71.7353 235.542 85.0155C237.045 90.715 244.445 97.327 247.352 102.002C245.878 95.5722 245.442 89.4235 246.439 84.2714C252.056 88.7356 255.525 89.4094 263.656 92.6523C273.963 100.036 279.145 112.067 287.08 122.919C293.006 129.559 304.324 134.023 313.705 134.977L313.452 133.728L312.919 131.524C307.793 131.033 300.828 130.064 295.407 125.403C284.285 111.084 276.224 96.3303 267.349 88.4408L262.181 86.4754C255.216 83.008 249.079 79.344 243.94 75.1326C243.94 75.1326 242.255 86.4754 240.724 86.4754C239.516 74.4587 237.311 63.8458 234.573 54.4683C233.365 52.2783 231.161 50.7622 228.703 48.0669C239.769 48.7828 244.937 47.0982 246.187 43.35C247.464 35.994 249.669 31.5439 254.289 29.0732C258.797 32.33 267.139 40.1774 270.354 47.8142C271.801 52.4749 272.348 57.4304 271.801 63.3124C272.348 62.3016 273.303 62.1191 273.809 61.6138C276.014 56.939 278.008 55.2264 281.153 51.2816C281.701 49.5549 281.701 48.3476 283.19 46.1296C284.664 48.7688 285.675 50.327 286.911 51.773C296.53 61.4172 295.014 77.8419 294.733 77.8419C295.997 92.1609 298.454 103.265 302.639 110.888C306.824 117.037 308.565 118.033 312.497 119.507C313.747 100.528 325.038 85.0435 330.247 83.8222C331.23 83.5976 332.438 82.3061 330.247 81.8288C326.273 80.3407 323.072 77.1681 322.58 70.7667C322.355 66.3025 320.6 43.6589 321.344 41.2162C322.074 38.7034 326.063 40.7389 326.273 41.9883C326.765 43.2096 327.523 59.4378 328.253 66.3025C329.236 72.9847 335.457 77.4068 337.662 78.4035C339.839 79.3721 351.902 78.6562 355.103 78.6562C358.038 78.6562 355.792 77.8841 357.603 77.126C359.569 76.1714 360.791 76.1714 361.788 76.9295C363.01 77.4068 362.265 80.5794 361.324 82.0253C360.075 83.7941 355.651 85.9981 351.902 86.7422C348.265 87.4862 344.782 85.9981 342.114 85.9981C335.963 86.4895 333.168 89.4656 330.978 91.6696C325.81 97.1024 323.086 103.686 320.389 115.338C317.89 126.877 321.358 138.922 323.577 144.65C325.782 150.49 330.276 164.598 334.137 172.431C338.126 180.124 343.518 186.708 346.018 191.65C348.672 196.788 348.981 197.04 350.217 204.958C351.677 213.1 364.99 237.218 371.155 246.062C377.319 254.976 383.442 255.903 391.348 256.928C399.24 258.149 402.653 254.667 403.65 254.19C404.647 253.516 393.061 232.262 390.857 229.581C388.919 226.844 387.163 226.591 387.163 226.591C387.163 226.591 386.194 224.148 387.163 223.376C387.894 222.45 394.859 224.162 398.496 226.1C402.007 227.798 418.732 268.649 419.757 269.941C420.698 271.443 433.716 274.812 434.502 274.602C435.485 274.377 423.198 242.328 423.408 241.106C423.703 239.604 428.815 241.106 429.559 241.106C430.36 241.106 440.892 275.374 440.892 275.374L445.849 276.82C443.869 269.969 438.462 232.234 437.943 231.799C401.249 207.12 388.175 188.926 379.356 176.896C370.003 164.065 368.262 150.756 368.023 137.196C367.742 123.354 372.446 118.735 374.665 115.984L375.901 114.805C382.052 108.15 391.39 103.209 401.74 102.479C401.74 101.258 404.731 101.482 406.908 101.482C409.436 101.482 410.124 101.047 410.376 99.0256C410.629 97.2849 408.635 96.0916 406.206 94.5615C403.706 92.8769 401.712 94.5615 397.316 95.5161C392.879 96.8637 386.967 94.0701 385.211 93.3121C383.737 92.5961 383.99 91.8521 385.97 91.3467C391.376 90.1254 395.322 89.8867 397.808 85.5208C387.922 86.9808 372.404 87.1493 370.452 85.942C368.992 84.9874 365.79 81.52 364.807 79.7933C363.543 78.3614 365.214 77.6314 366.506 77.6314C367.714 77.6314 369.189 80.818 372.152 81.52C374.862 82.2499 394.059 81.0567 397.808 80.5654C401.684 80.074 403.945 76.382 405.209 75.1045C406.374 73.8972 405.209 72.8724 403.678 72.6618C401.993 72.3951 396.53 73.8972 394.297 73.8972C392.345 73.8972 392.121 73.8972 392.121 72.4091C392.121 70.6965 400.027 67.7344 402.948 65.5304C405.658 63.2843 406.838 58.0902 406.838 58.0902C406.838 58.0902 407.554 56.1529 408.747 56.4758C410.011 56.7004 410.742 59.9011 412.23 64.0985C413.719 68.5065 410.011 77.856 406.29 82.2921C405.574 82.8255 404.338 83.5976 402.583 84.0188C404.127 85.7595 415.727 100.036 421.597 109.161C424.082 112.825 426.736 117.528 429.461 122.666L431.932 125.165C435.626 131.033 442.043 135.272 451.663 134.795C465.2 136.002 475.999 130.331 482.192 123.396C490.126 112.825 495.505 100.528 505.587 93.1717C513.789 90.1815 517.229 89.2269 522.832 85.0435C523.801 89.971 523.352 96.3443 522.144 102.535C525.079 97.8745 532.213 91.4309 533.744 85.7735C535.92 72.4653 538.602 59.6765 540.877 55.9704C539.908 56.7144 560.088 36.2607 575.114 32.8494C580.787 32.8494 587.458 32.3721 592.373 33.1021C598.257 34.5902 603.003 38.2682 608.424 44.4169C598.538 38.7736 590.631 38.2682 580.591 43.9256C567.039 52.7697 556.942 77.7016 545.146 98.815C519.701 144.411 466.253 143.429 450.02 142.713L438.912 142.418L439.656 144.65C440.864 144.158 444.585 143.386 453.193 147.121C456.339 148.623 469.202 155.712 471.182 166.1C469.694 168.023 466.759 169.512 463.051 170.761C460.074 171.716 455.384 171.252 451.972 169.764C448.784 168.81 445.821 166.844 443.335 163.363L444.585 170.256C448.798 173.667 450.455 175.674 458.839 177.373C467.278 178.356 474.117 175.674 481.293 168.557L497.33 146.601C498.046 145.647 498.791 145.647 499.282 146.601C503.804 155.445 504.745 163.615 502.021 171.266C497.836 179.647 489.452 184.518 477.122 186.049C470.241 186.049 463.782 185.066 456.634 183.115C451.003 180.588 447.548 179.142 445.835 176.966C447.534 188 449.823 199.624 451.747 208.243C456.198 228.43 471.463 246.89 472.432 251.593C473.443 256.226 450.272 248.673 448.812 249.389C447.309 250.063 454.457 285.074 453.249 285.327C451.747 285.551 417.988 277.465 414.519 274.967C410.868 272.763 408.607 262.192 407.133 260.942C405.672 259.974 404.464 261.995 402.47 263.413C400.476 265.154 402.709 274.545 404.675 276.272C406.655 278.195 414.519 279.683 416.485 280.891C418.507 282.393 419.743 285.846 420.965 286.562L426.835 291.223L423.675 291.462H519.279V444.169L526.427 445.433C529.657 446.429 531.581 448.114 532.592 450.641L544.191 492.25L572.965 491.969L573.204 482.101C573.962 465.395 571.982 450.852 567.559 438.54C530.106 364.376 520.501 312.421 540.007 261.167C545.413 250.344 552.547 242.215 561.914 236.797C566.127 236.081 567.124 233.821 563.894 230.171C560.945 224.977 560.186 216.132 559.976 203.54C557.771 201.098 557.49 198.107 558.993 194.71C561.394 189.095 566.871 190.541 567.868 196.718C568.331 209.029 565.368 220.105 571.07 227.953C573.555 231.687 577.22 233.891 582.43 234.396L598.439 235.365C602.624 235.126 605.798 233.399 608.045 229.96C611.752 228.977 612.51 230.409 610.221 234.382C608.803 238.06 605.615 241.261 600.658 243.24L576.195 241.766C558.473 243.928 548.109 255.804 545.666 277.479C536.777 308.013 541.678 347.965 559.962 397.45C577.909 430.903 582.641 445.18 582.894 450.388L584.34 482.915C584.635 485.372 582.388 496.686 596.235 508.492C603.818 511.707 609.449 518.109 613.17 527.444C617.355 538.113 618.633 545.216 634.431 555.605C646.986 560.504 661.253 560.504 663.43 556.321C666.66 553.106 666.885 548.417 664.694 542.479L655.046 517.589C653.108 512.957 649.387 507.748 643.433 502.105C642.239 499.382 643.433 496.672 647.393 497.922L656.043 502.54L663.191 511.693L695.518 595.937L718.394 602.815L708.536 533.831L716.695 537.046L726.019 604.823L734.628 608.234L721.329 513.195C652.575 452.087 617.13 398.657 614.617 352.584C611.078 332.299 615.544 307.437 625.626 298.34ZM416.963 205.197C436.637 223.18 455.342 235 451.957 231.546C451.382 230.802 446.986 219.488 446.031 217.536C445.582 216.329 429.784 204.017 420.417 196.072L416.963 205.197ZM423.338 187.466C432.466 193.124 445.217 202.221 446.776 202.221C447.492 201.982 446.776 201.027 446.242 199.82C445.975 198.809 433.238 188.66 425.093 182.3L423.338 187.466ZM427.073 174.453C433.66 178.861 443.616 186.273 444.318 186.498C445.554 186.989 443.981 184.294 443.813 183.072C443.813 182.09 434.193 173.19 428.506 167.757L427.073 174.453ZM429.784 157.902L441.833 168.234C441.833 168.234 441.833 166.283 440.85 163.826C440.077 161.819 433.969 154.196 430.289 150.026L429.784 157.902ZM429.278 137.196C429.784 135.693 436.889 145.071 436.889 145.071C436.889 145.071 437.395 145.352 435.906 141.884C433.912 137.49 430.753 132.521 427.073 127.846C428.014 131.033 428.745 134.29 429.278 137.196ZM393.834 262.838C388.863 264.368 383.203 262.122 383.203 261.939C383.203 261.939 382.726 271.71 382.922 273.24C382.922 274.714 389.073 275.921 390.098 276.665C391.292 277.423 394.059 274.939 394.059 274.939C394.059 274.939 394.522 267.498 393.834 262.838ZM362.49 291.419H415.966C414.266 290.437 408.101 284.807 405.166 285.481C404.141 285.804 410.545 291.419 410.545 291.419C410.545 291.419 401.417 291.419 400.223 290.984C399.002 290.675 389.115 284.569 387.402 283.797C385.886 283.025 367.18 290.198 362.49 291.419ZM348.672 291.419H361.268C360.552 290.437 359.035 287.461 359.035 286.773C359.007 286.253 350.905 290.198 348.672 291.419ZM519.181 461.591V525.17C523.169 521.225 526.104 516.592 528.604 511.37C532.016 504.477 532.016 493.668 527.831 480.851C525.093 473.706 522.425 467.346 519.181 461.591ZM253.854 526.153V459.906C250.147 466.069 246.931 473.214 244.206 480.851C239.769 493.907 240.036 504.464 243.476 511.384C245.892 517.337 249.43 521.969 253.854 526.153ZM376.8 414.296C363.74 411.362 354.106 416.079 347.422 428.418C328.731 429.106 318.845 438.259 317.89 455.681C309.492 457.913 305.054 463.332 304.338 472.695C295.477 473.453 290.295 480.093 288.54 492.657C274.23 492.657 273.037 514.571 289.79 517.014C293.427 520.495 297.64 528.371 300.631 537.243C304.549 545.315 309.183 552.966 314.393 555.928C313.916 566.232 315.109 573.391 317.103 578.852L318.817 601.285C321.288 606.9 325.22 613.105 331.427 613.316C341.215 612.614 342.97 605.651 339.769 592.427L340.808 565.811C342.479 567.256 343.785 570.219 344.459 574.177C345.976 584.762 345.976 600.527 347.394 621.247C351.143 630.807 353.545 629.614 358.979 631.102C365.369 630.597 368.866 627.368 370.284 619.493C370.284 613.077 369.315 607.658 367.602 602.97C365.888 592.413 365.383 580.045 366.619 566.737C366.857 557.135 367.363 550.762 369.596 547.308C373.781 542.591 374.764 538.941 375.999 528.567C376.968 526.11 383.863 526.588 386.363 521.688C387.823 514.052 387.599 503.453 385.872 488.642C383.161 481.792 382.431 475.348 383.639 469.256C384.116 464.525 386.644 462.321 391.573 462.559C395.772 462.307 398.679 465.058 399.957 470.673C400.139 476.345 399.957 481.328 398.96 486.2C397.948 491.871 398.679 501.712 402.849 510.36C403.341 512.367 402.372 514.992 403.144 517C401.937 521.155 399.423 523.415 398.693 532.259C398.693 537.215 401.389 545.567 401.389 545.567C404.338 551.983 405.812 567.776 405.812 593.297C404.085 596.035 403.327 599.741 406.107 603.672C412.497 607.139 415.432 606.648 421.597 602.942C424.265 599.727 426.259 596.302 427.748 592.385C428.688 575.834 428.688 563.298 427.242 554.65C427.453 552.657 428.225 551.716 429.728 551.716C432.663 556.377 434.418 561.318 435.612 566.498C435.401 593.101 432.663 608.36 433.421 614.228C434.629 617.934 438.083 619.928 445.526 619.451C450.918 616.994 460.299 602.212 460.299 602.212C462.279 591.135 462.476 578.333 460.748 563.986C460.538 561.023 460.538 559.381 461.296 555.871C462.012 553.443 462.265 552.937 464.006 552.657C471.168 554.383 476.069 550.719 478.99 541.595C479.496 537.187 479.496 530.785 478.499 522.896C478.021 518.235 476.842 514.304 474.047 511.272C480.956 499.761 479.243 488.614 468.893 477.58C472.615 463.739 466.941 453.168 452.168 446.05C452.632 432.279 444.739 425.569 428.253 425.863C425.571 417.23 418.128 413.018 405.855 413.271C407.062 400.693 404.605 391.863 391.812 390.108C388.371 389.926 370.621 390.936 376.8 414.296ZM327.481 381.798L318.128 352.289L343.041 334.054H312.23L302.597 304.503L293.272 334.054H262.462L287.29 352.289L277.713 381.798L302.597 363.604L327.481 381.798ZM410.545 381.798L400.911 352.289L425.782 334.054H395.238L385.633 304.503L375.999 334.054H345.414L370.34 352.289L360.707 381.798L385.605 363.604L410.545 381.798ZM494.564 381.798L484.972 352.289L509.842 334.054H479.018L469.694 304.503L460.102 334.054H429.278L454.162 352.289L444.796 381.798L469.68 363.604L494.564 381.798ZM90.2258 434.076C65.5945 462.377 48.3498 480.093 37.7614 486.256C36.2588 496.855 33.3379 507.215 27.6786 518.586C56.4806 495.156 80.1009 472.751 98.3567 450.599L90.2258 434.076ZM80.6064 413.608C70.4674 426.172 55.7364 440.926 36.4835 457.941C36.1886 459.19 36.4835 461.591 36.1886 462.896C58.6854 448.339 74.9331 434.778 85.2686 423.73L80.6064 413.608ZM72.2649 390.712C65.3417 399.542 56.5087 410.127 42.4237 423.182L41.9181 429.598C53.7563 420.725 65.089 411.123 75.6773 400.791L72.2649 390.712ZM65.8332 361.133C58.9382 370.511 54.2197 377.39 48.5745 384.549L48.0549 394.123L67.729 373.74C67.069 369.5 66.3107 365.317 65.8332 361.133ZM65.3136 325.673C62.8842 329.842 60.6514 334.068 58.6713 338.251C54.4866 344.638 54.4866 351.026 54.4866 352.752L64.5975 337.521C64.8924 333.576 65.103 329.603 65.3136 325.673ZM376.013 52.0116C376.013 54.9456 378.26 57.1777 381.251 57.1777C383.906 57.1777 386.419 54.9456 386.419 52.0116C386.419 49.0776 383.906 46.8315 381.251 46.8315C378.274 46.8315 376.013 49.0355 376.013 52.0116ZM330.219 27.4166C329.953 28.8766 330.514 30.0839 331.722 31.0666C332.705 32.3581 335.134 33.0319 338.336 34.2813L347.253 38.2261C349.908 39.4334 352.225 38.7315 354.64 41.4549C356.845 43.8975 357.842 46.5788 358.6 48.7828C359.33 51.2957 359.33 53.4997 360.608 56.6863C361.591 59.6484 361.086 60.8978 362.56 61.5716C364.259 62.2876 365.242 62.1332 366.24 60.8978C367.223 59.9011 367.742 56.9531 368.262 54.7491C368.444 52.7276 369.455 49.5128 371.716 46.8315C373.907 43.8975 379.37 40.4441 384.537 39.4334C389.691 38.7315 391.39 39.1807 395.533 38.2261C400.041 36.9907 402.26 36.5415 402.934 34.2813C403.481 32.0352 403.678 29.382 400.49 28.3712C397.274 27.6693 380.058 21.9698 365.032 22.5033C350.301 22.9806 335.724 25.9146 334.208 25.6899C331.469 25.6198 330.219 27.4166 330.219 27.4166ZM342.254 49.8216C342.254 52.4889 344.754 54.9456 347.422 54.9456C350.427 54.9456 352.618 52.4889 352.618 49.8216C352.618 46.8315 350.399 44.3748 347.422 44.3748C344.74 44.3748 342.254 46.8315 342.254 49.8216ZM306.796 17.8005C306.796 17.8005 351.86 12.129 361.985 11.9325C372.109 11.6236 391.306 15.3438 399.184 16.8459C407.343 18.3058 422.861 17.3091 423.83 18.0532C424.841 19.0499 426.484 21.0433 424.068 22.9946C421.583 24.9178 411.753 30.842 411.753 33.046C411.753 35.5588 412.244 37.2294 410.756 38.4928C409.056 39.4474 407.568 38.4928 402.611 40.9916C397.738 43.2237 394.227 45.6523 393.272 47.6317C392.289 49.3865 391.812 48.8811 392.05 51.3378C392.289 53.5418 394.522 55.2825 393.272 56.2231C392.289 57.2198 391.587 56.2231 390.604 57.2198C389.621 58.2025 386.405 61.4313 382.459 61.4313C378.513 61.4313 378.513 60.7013 375.508 61.6839C367.644 64.3652 365.425 69.798 364.737 72.002C363.951 74.5149 363.473 74.9781 362.49 74.0095C361.535 73.3076 361.999 72.2968 360.243 69.3348C358.797 66.6535 356.101 60.5047 352.393 59.9994C348.686 59.2132 342.086 59.0026 339.558 57.2619C337.353 55.2966 334.643 55.2966 334.924 53.3172C335.373 51.3939 337.634 51.3939 337.634 48.1792C337.634 44.7258 336.384 41.2724 330.907 38.0997C325.74 34.8709 320.333 33.9023 319.561 32.6529C319.111 31.1227 319.561 30.9543 320.123 29.4381C320.797 27.9501 322.285 28.4695 319.561 27.4728C316.907 26.7288 309.211 24.9459 307.568 23.2754C306.037 21.5767 304.83 18.362 305.546 18.0953C306.052 17.5197 306.796 17.8005 306.796 17.8005ZM925.022 298.832C925.022 365.583 926.763 439.2 930.175 519.526C976.025 521.506 1006.57 522.503 1021.38 522.503C1061.74 522.503 1092.09 518.586 1112.27 511.16C1126.58 505.699 1137.88 495.914 1146.51 482.073L1155.41 485.007C1155.89 491.45 1153.65 502.498 1148.73 518.319C1143.82 534.028 1139.09 545.652 1135.16 553.036C1107.12 550.102 1024.04 548.586 885.842 548.586H859.961L855.565 537.257L860.452 434.778C861.969 399.542 862.952 354.269 862.952 298.832C862.952 261.925 859.259 201.027 859.259 201.027L856.759 160.836L861.168 149.479H927.971L932.408 160.836L930.428 200.017C930.442 200.017 925.022 266.109 925.022 298.832ZM2164.63 539.489L2160.46 549.821H2102.11L2096.86 539.489V506.696C2072.16 537.495 2039.97 552.727 1999.85 552.727C1952.22 552.727 1911.86 536.007 1878.09 502.498C1844.55 469.045 1827.83 428.418 1827.83 380.59C1827.83 333.295 1844.55 292.922 1878.37 259.132C1912.04 225.692 1952.74 208.931 2000.3 208.931C2041.93 208.931 2075.95 222.225 2102.13 249.333C2102.13 189.432 2100.43 197.083 2096.92 107.926L2102.13 97.5376H2160.53L2164.7 107.926C2160.24 183.101 2158 192.913 2158 301.541C2157.99 372.996 2160.21 452.508 2164.63 539.489ZM2102.1 335.036C2088.24 267.807 2048.6 234.312 1983.54 234.312C1957.89 234.312 1936.7 245.641 1920.23 268.509C1903.46 291.433 1895.11 320.745 1895.11 356.711C1895.11 365.078 1895.74 373.726 1897.26 382.836C1902.27 425.442 1915.01 460.959 1935.93 489.007C1956.88 517.337 1981.77 531.375 2010.39 531.375C2030.09 531.375 2048.36 525.198 2065.1 512.9C2081.84 500.842 2093.41 484.052 2099.82 462.616C2100.85 430.819 2101.58 388.241 2102.1 335.036ZM2462.79 447.328C2462.79 480.584 2449.49 507.454 2422.59 527.163C2398.25 546.129 2368.94 555.717 2334.71 555.717C2300.39 555.717 2270.63 548.572 2245.52 534.028L2199.16 516.059C2199.16 485.54 2201.62 463.332 2206.78 449.588C2226 480.346 2242.77 500.112 2256.53 508.647C2282.94 524.482 2308.83 532.596 2334.14 532.596C2352.11 532.596 2369.15 526.447 2385.65 514.627C2403.87 501.558 2413.22 486.803 2413.22 469.775C2413.22 449.785 2405.1 433.585 2388.9 421.034C2377.31 411.713 2356.61 403.585 2326.56 396.383C2290.57 387.539 2266.65 380.197 2254.89 374.75C2229.69 363.351 2212.95 346.154 2205.12 323.216C2201.2 311.691 2199.18 300.334 2199.18 288.808C2199.18 273.24 2205.37 257.517 2217.69 241.724C2228.7 227.195 2244 216.568 2263.72 210.208C2278.58 205.744 2299.94 203.554 2328.02 203.554C2341.32 203.554 2364.25 207.036 2396.96 213.9C2415.24 218.084 2433.5 221.734 2451.67 225.243C2453.21 261.209 2452.02 288.794 2448.06 308.209C2427.84 277.69 2410.38 257.784 2395.55 248.35C2374.62 234.354 2350.72 227.433 2323.6 227.433C2304.89 227.433 2291.13 229.918 2282.2 234.817C2261 246.862 2250.41 261.672 2250.41 278.897C2250.41 293.427 2258.3 305.514 2274.06 314.891C2288.39 323.96 2311.51 332.832 2343.31 341.466C2375.14 350.127 2396.51 357.231 2407.39 362.86C2444.3 382.822 2462.79 410.927 2462.79 447.328ZM937.351 646.643L931.453 646.853C927.03 635.328 918.127 629.418 904.322 629.418C895.194 629.418 887.569 632.885 881.362 640.017C874.973 647.106 871.757 655.81 871.757 665.847C871.757 677.204 875.464 687.059 882.584 695.411C889.493 703.539 897.118 707.737 905.488 707.737C918.548 707.737 927.676 704.284 932.787 697.615L936.326 702.824C932.394 707.47 928.602 710.924 924.979 712.664C920.022 715.135 913.141 716.37 904.491 716.37C891.936 716.37 880.828 711.654 871.223 702.276C861.393 692.983 856.45 681.135 856.45 667.574C856.45 655.459 861.084 644.635 870.97 635.075C880.576 625.712 891.684 620.798 904.027 620.798C910.866 620.798 918.997 622.75 928.125 626.217C930.863 627.2 933.588 627.438 936.031 626.975L937.281 627.677V646.657L937.351 646.643ZM1034.16 625.669C1033.21 640.452 1032.94 654.743 1032.94 668.753C1032.94 680.39 1033.21 694.667 1034.16 711.415L1032.94 714.574H1018.41L1017.19 711.415L1017.92 692.407C1018.41 686.244 1018.41 678.411 1018.41 668.739C1018.41 659.361 1018.15 645.084 1017.19 625.655L1018.41 622.707H1032.94L1034.16 625.669ZM1199.01 630.625L1175.58 630.134L1160.59 630.372C1159.82 642.473 1159.64 655.262 1159.64 668.767C1159.64 680.882 1159.83 695.397 1160.59 712.355L1159.82 714.574H1144.54L1143.53 712.355L1144.54 693.657C1144.54 687.269 1144.84 678.846 1144.84 668.767C1144.84 658.617 1144.54 650.573 1144.29 644.411L1143.56 630.134H1129.04L1105.87 630.625C1106.36 626.666 1106.89 624.153 1107.62 622.721H1108.6H1132.91H1142.86H1152.46H1163.29H1174.12H1196.3H1197.48C1198.25 624.21 1198.58 626.666 1199.01 630.625ZM1345.86 623.915L1335.55 638.767C1330.31 646.362 1322.93 657.213 1312.86 671.757V674.466L1314.32 712.355L1313.36 714.574H1297.81L1297.16 712.355C1297.81 692.421 1298.31 679.913 1298.31 674.466V670.255C1290.69 659.431 1283.09 648.608 1274.92 637.995L1265.34 623.915L1266.07 622.721H1280.86L1282.85 623.915L1290.43 636.998C1296.84 648.608 1303.06 658.617 1308.69 667.574C1312.59 662.155 1318.34 652.23 1326.16 638.009L1333.87 623.929L1335.86 622.736H1345.23L1345.86 623.915ZM1613.22 646.643L1607.28 646.853C1603.13 635.328 1594 629.418 1580.17 629.418C1571.04 629.418 1563.38 632.885 1557.22 640.017C1550.86 647.106 1547.63 655.81 1547.63 665.847C1547.63 677.204 1551.34 687.059 1558.46 695.411C1565.32 703.539 1572.99 707.737 1581.33 707.737C1594.43 707.737 1603.8 704.284 1608.73 697.615L1612.11 702.824C1608.18 707.47 1604.54 710.924 1600.82 712.664C1595.91 715.135 1589.25 716.37 1580.63 716.37C1567.82 716.37 1556.71 711.654 1547.12 702.276C1537.29 692.983 1532.31 681.135 1532.31 667.574C1532.31 655.459 1537.01 644.635 1546.8 635.075C1556.48 625.712 1567.56 620.798 1579.86 620.798C1587.02 620.798 1594.91 622.75 1604 626.217C1606.74 627.2 1609.49 627.438 1611.9 626.975L1613.15 627.677V646.657L1613.22 646.643ZM1783.21 668.528C1783.21 681.359 1778.03 692.702 1767.41 702.515C1757.08 712.355 1745.49 717.325 1732.95 717.325C1719.65 717.325 1707.82 712.356 1697.75 702.781C1687.85 692.983 1682.68 681.57 1682.68 668.542C1682.68 655.459 1687.85 644.186 1698.41 634.036C1708.8 623.929 1720.38 618.847 1732.95 618.847C1745.94 618.847 1757.56 623.929 1767.91 633.812C1778.03 643.863 1783.21 655.445 1783.21 668.528ZM1767.92 668.528C1767.43 657.185 1763.48 647.344 1755.87 639.258C1748.48 630.836 1740.37 626.666 1731.48 626.666C1721.69 626.666 1713.73 630.85 1707.1 638.964C1700.4 647.359 1697.49 656.947 1698.24 668.528C1698.48 679.871 1702.41 689.431 1710.09 697.854C1717.48 706.221 1725.58 710.404 1734.44 710.404C1744.03 710.404 1751.95 706.221 1758.58 698.051C1765.24 689.726 1768.17 679.871 1767.92 668.528ZM1927.6 624.687C1926.59 630.625 1926.14 645.112 1926.14 668.767V685.276C1925.58 690.947 1923.19 696.913 1918.74 703.048C1913.04 711.443 1905.18 715.837 1895.32 716.076C1885.95 716.581 1879.01 715.837 1874.14 713.886C1867.67 711.443 1863.02 708.453 1860.29 704.761C1857.64 700.858 1855.67 694.429 1854.9 684.798L1854.66 668.781C1854.66 644.902 1854.12 630.386 1853.13 624.701L1853.82 622.736H1868.62L1869.65 624.701L1868.62 643.695C1868.43 650.082 1868.17 658.449 1868.17 668.781C1868.17 675.182 1868.44 679.885 1868.62 682.384C1869.2 687.297 1869.97 690.961 1870.85 693.685C1874.14 703.315 1881.98 708.214 1894.62 708.214C1898.49 708.214 1902.69 706.726 1907.18 703.554C1910.81 700.858 1913.6 697.391 1915.57 693.221C1916.78 690.231 1917.76 686.062 1918.19 680.657L1918.45 668.781C1918.45 658.477 1918.19 650.082 1917.98 643.723L1917.24 624.715L1917.98 622.764H1926.87L1927.6 624.687ZM2079.13 712.355L2078.16 714.574H2060.64L2058.22 712.355C2056.46 709.422 2054.45 706.502 2052.28 703.525L2045.9 695.159C2040.93 687.508 2033.09 676.446 2022.76 661.411L2014.61 650.587C2013.83 656.736 2013.39 662.885 2013.39 668.753C2013.39 680.868 2013.83 695.383 2014.61 712.341L2013.83 714.56H2005.23L2004.26 712.341L2005.23 693.643C2005.51 687.255 2005.51 678.832 2005.51 668.753L2005.02 649.338L2004.26 630.836V624.687L2005.23 622.721H2015.38C2019.33 629.628 2024.19 637.279 2029.67 645.112C2035.09 653.535 2042.92 665.552 2053.79 681.359L2069.34 702.767L2069.56 696.099C2069.81 688.982 2070.04 679.913 2070.04 668.753C2070.04 658.449 2069.8 650.054 2069.56 643.695L2068.57 624.687L2069.56 622.736H2078.17L2079.14 624.687C2078.17 639.539 2077.69 654.251 2077.69 668.767C2077.68 680.882 2078.14 695.369 2079.13 712.355ZM2231.2 646.643L2225.26 646.853C2220.86 635.328 2211.94 629.418 2198.13 629.418C2188.98 629.418 2181.4 632.885 2175.22 640.017C2168.85 647.106 2165.64 655.81 2165.64 665.847C2165.64 677.204 2169.28 687.059 2176.41 695.411C2183.37 703.539 2190.99 707.737 2199.33 707.737C2212.41 707.737 2221.82 704.284 2226.74 697.615L2230.17 702.824C2226.18 707.47 2222.56 710.924 2218.82 712.664C2213.87 715.135 2207.24 716.37 2198.67 716.37C2185.78 716.37 2174.67 711.654 2165.08 702.276C2155.28 692.983 2150.31 681.135 2150.31 667.574C2150.31 655.459 2154.96 644.635 2164.89 635.075C2174.48 625.712 2185.56 620.798 2197.9 620.798C2205.03 620.798 2212.87 622.75 2221.98 626.217C2224.69 627.2 2227.45 627.438 2229.9 626.975L2231.11 627.677V646.657L2231.2 646.643ZM2328.01 625.669C2327.03 640.452 2326.77 654.743 2326.77 668.753C2326.77 680.39 2327.03 694.667 2328.01 711.415L2326.77 714.574H2312.45L2310.99 711.415L2311.75 692.407C2312.24 686.244 2312.43 678.411 2312.43 668.739C2312.43 659.361 2311.96 645.084 2310.99 625.655L2312.43 622.707H2326.74L2328.01 625.669Z" fill="#4A5565"/>
</g>
<defs>
<clipPath id="clip0_32_264">
<rect width="2464" height="739" fill="white"/>
</clipPath>
</defs>
</svg>
