<svg width="1003" height="1088" viewBox="0 0 1003 1088" fill="none" xmlns="http://www.w3.org/2000/svg">
<g clip-path="url(#clip0_32_132)">
<path d="M448.17 321.982L878.136 269.983C828.244 161.157 738.131 75.8995 626.72 32.1122C515.309 -11.675 391.267 -10.5848 280.642 35.1538L263.446 126.846L221.74 349.369L328.904 336.407L448.17 321.982Z" fill="#4A5565"/>
<path d="M448.17 616.173L165.309 650.369L152.702 717.65L82.7051 1088L229.406 864.57C301.437 905.433 383.12 926.197 465.919 924.693C548.718 923.188 629.593 899.469 700.092 856.015C770.592 812.562 828.127 750.968 866.686 677.671C905.244 604.374 923.411 522.065 919.286 439.346C919.286 435.513 918.732 431.73 918.429 427.947L448.17 484.839V616.173Z" fill="#4A5565"/>
<path d="M88.454 496.792V431.982L64.046 489.782L47.2528 491.799L22.996 439.901V504.509L0 507.283V407.622L28.1903 404.243L55.6746 460.327L83.1085 397.585L111.147 394.206V494.069L88.454 496.792Z" fill="#4A5565"/>
<path d="M151.693 470.767L144.33 490.034L118.006 493.262L161.527 388.507L188.003 385.279L230.616 479.846L203.182 483.175L195.92 465.673L151.693 470.767ZM173.983 411.959L159.207 450.644L188.406 447.113L173.983 411.959Z" fill="#4A5565"/>
<path d="M307.875 470.263L261.328 414.481V475.861L237.172 478.786V379.075L259.865 376.351L306.563 432.234V370.703L330.568 367.777V467.489L307.875 470.263Z" fill="#4A5565"/>
<path d="M433.243 371.308L418.114 390.473C414.97 386.965 411.06 384.23 406.686 382.48C402.313 380.731 397.595 380.014 392.899 380.386C385.061 381.407 377.865 385.255 372.664 391.209C367.464 397.162 364.617 404.81 364.658 412.716C364.362 416.417 364.908 420.138 366.257 423.598C367.605 427.058 369.721 430.167 372.444 432.691C375.167 435.216 378.427 437.09 381.979 438.172C385.53 439.255 389.281 439.518 392.95 438.942C402.79 437.028 411.685 431.815 418.164 424.165L433.293 438.034C422.501 450.404 407.736 458.625 391.537 461.285C361.027 465.018 338.334 445.65 338.334 416.448C338.334 387.246 361.683 363.289 392.496 359.455C399.738 358.52 407.094 359.09 414.106 361.13C421.117 363.169 427.632 366.634 433.243 371.308Z" fill="#4A5565"/>
<path d="M509.947 445.802V407.067L467.989 412.111V450.896L442.27 454.073V354.261L467.989 351.184V392.188L509.947 387.145V346.09L535.666 342.963V442.675L509.947 445.802Z" fill="#4A5565"/>
<path d="M573.64 358.245V378.016L621.952 372.165V392.34L573.64 398.19V418.365L628.76 411.707V431.881L548.072 441.666V341.501L627.348 331.918V352.092L573.64 358.245Z" fill="#4A5565"/>
<path d="M721.551 330.455L711.868 351.436C701.742 346.738 690.647 344.509 679.492 344.93C672.836 345.737 668.347 348.713 668.347 353.555C668.347 370.804 721.853 354.513 721.853 390.524C721.853 410.698 703.9 423.206 681.51 425.829C665.374 427.972 648.997 424.404 635.215 415.742L645.301 395.013C655.941 402.605 668.867 406.309 681.913 405.503C689.982 404.545 695.075 400.964 695.075 395.416C695.075 377.713 641.569 394.761 641.569 359.405C641.569 341.046 657.606 327.429 681.913 324.504C695.423 322.648 709.181 324.713 721.551 330.455Z" fill="#4A5565"/>
<path d="M782.823 333.431V412.817L757.104 415.893V336.558L726.846 340.24V319.712L813.283 309.222V329.749L782.823 333.431Z" fill="#4A5565"/>
<path d="M848.836 324.958V344.779L897.148 338.928V359.103L848.836 364.953V385.127L903.956 378.47V398.644L823.268 408.429V308.112L902.493 298.529V318.704L848.836 324.958Z" fill="#4A5565"/>
<path d="M958.723 363.289H958.017L938.5 365.659V393.701L912.73 396.828V297.369L958.117 291.872C984.845 288.644 1000.18 299.336 1000.18 321.528C1000.48 328.367 998.937 335.162 995.707 341.197C992.477 347.233 987.679 352.286 981.819 355.824L1003.05 386.086L973.852 389.616L958.723 363.289ZM958.017 343.417C969.162 342.106 975.667 335.751 975.667 325.21C975.667 314.669 969.162 310.079 958.017 311.693L938.5 314.063V345.787L958.017 343.417Z" fill="#4A5565"/>
<path d="M44.0757 533.762C69.9463 530.635 84.8735 541.327 84.8735 563.569C84.8735 586.921 69.7445 602.253 44.0757 605.38L25.7192 607.599V635.642L0 638.769V539.057L44.0757 533.762ZM25.7192 587.677L42.7645 585.609C54.0608 584.248 60.5663 577.893 60.5663 567.352C60.5663 556.811 54.0608 552.473 42.7645 553.835L25.7192 555.903V587.677Z" fill="#4A5565"/>
<path d="M138.531 593.982H137.825L118.308 596.302V624.395L92.5388 627.522V527.861L137.926 522.414C164.654 519.186 179.984 529.878 179.984 552.07C180.279 558.907 178.73 565.698 175.501 571.731C172.272 577.765 167.48 582.82 161.628 586.366L182.859 616.628L153.66 620.158L138.531 593.982ZM137.825 574.11C148.919 572.748 155.425 566.444 155.425 555.903C155.425 545.362 148.919 540.772 137.825 542.336L118.308 544.706V576.481L137.825 574.11Z" fill="#4A5565"/>
<path d="M191.482 615.467V515.907L217.201 512.78V612.542L191.482 615.467Z" fill="#4A5565"/>
<path d="M275.196 505.77C307.017 501.937 329.005 519.488 329.005 549.144C329.005 578.801 306.715 601.699 274.339 605.633L231.826 610.676V511.066L275.196 505.77ZM257.394 587.425L275.801 585.206C283.597 584.129 290.704 580.161 295.711 574.088C300.718 568.016 303.26 560.282 302.831 552.423C302.831 534.77 290.98 524.128 274.641 526.095L257.394 528.163V587.425Z" fill="#4A5565"/>
<path d="M362.54 515.151V534.77L410.852 528.92V549.094L362.54 554.945V575.119L417.66 568.461V588.636L336.972 598.42V498.305L416.198 488.722V508.897L362.54 515.151Z" fill="#4A5565"/>
<path d="M993.822 420.987C996.633 422.233 998.98 424.333 1000.53 426.989C1002.18 429.798 1003.02 433.011 1002.95 436.269C1002.99 439.786 1002.14 443.255 1000.48 446.356C998.841 449.409 996.53 452.048 993.721 454.073C990.894 456.064 987.621 457.328 984.19 457.755C980.981 458.193 977.713 457.721 974.759 456.393C971.948 455.08 969.594 452.954 968.002 450.29C966.311 447.496 965.454 444.276 965.531 441.01C965.483 437.492 966.333 434.021 968.002 430.923C969.631 427.866 971.944 425.225 974.759 423.206C977.575 421.195 980.854 419.929 984.291 419.525C987.542 419.085 990.852 419.592 993.822 420.987ZM992.158 451.602C994.552 449.916 996.493 447.663 997.806 445.045C999.191 442.474 999.902 439.593 999.873 436.673C999.931 433.922 999.252 431.205 997.907 428.805C996.598 426.592 994.645 424.832 992.309 423.761C989.802 422.614 987.014 422.228 984.291 422.652C981.396 422.965 978.633 424.025 976.272 425.728C973.876 427.406 971.921 429.638 970.574 432.234C969.251 434.827 968.559 437.696 968.556 440.607C968.517 443.362 969.213 446.078 970.574 448.475C971.905 450.687 973.874 452.445 976.222 453.518C978.706 454.679 981.477 455.082 984.19 454.678C987.065 454.352 989.809 453.293 992.158 451.602ZM992.158 438.236C991.421 439.433 990.376 440.408 989.132 441.061L993.671 447.567L989.233 448.122L985.198 442.322H984.644L980.609 442.776V449.03L976.121 449.584V428.855L984.644 427.796C986.8 427.377 989.034 427.792 990.897 428.956C991.681 429.529 992.306 430.294 992.712 431.176C993.118 432.059 993.292 433.031 993.217 434C993.335 435.464 993.038 436.933 992.359 438.236H992.158ZM984.644 439.144C985.91 439.061 987.115 438.565 988.073 437.732C988.474 437.361 988.79 436.907 988.999 436.402C989.208 435.897 989.305 435.353 989.283 434.807C989.327 434.309 989.238 433.809 989.025 433.357C988.813 432.905 988.484 432.518 988.073 432.234C987.031 431.649 985.816 431.453 984.644 431.68L980.71 432.134V439.648L984.644 439.144Z" fill="#4A5565"/>
</g>
<defs>
<clipPath id="clip0_32_132">
<rect width="1003" height="1088" fill="white"/>
</clipPath>
</defs>
</svg>
