<svg width="806" height="629" viewBox="0 0 806 629" fill="none" xmlns="http://www.w3.org/2000/svg">
<g clip-path="url(#clip0_32_48)">
<path d="M18.252 324.963H802.235V7.10815H18.252V324.963Z" fill="white"/>
<mask id="mask0_32_48" style="mask-type:luminance" maskUnits="userSpaceOnUse" x="-5171" y="-480" width="6336" height="8966">
<path d="M-5170.57 8485.13H1164.25V-479.957H-5170.57V8485.13Z" fill="white"/>
</mask>
<g mask="url(#mask0_32_48)">
<path d="M772.321 41.1418L755.518 92.7457C742.109 86.4523 723.826 80.8936 698.116 80.8936C670.543 80.8936 648.142 84.9402 648.142 105.758C648.142 142.486 749.197 128.77 749.197 207.486C749.197 279.11 682.44 297.692 622.048 297.692C595.199 297.692 564.242 291.356 541.521 284.296L557.931 231.574C571.68 240.497 599.306 246.439 622.048 246.439C643.693 246.439 677.598 242.339 677.598 215.622C677.598 174.038 576.533 189.639 576.533 116.535C576.533 49.6821 635.457 29.6305 692.529 29.6305C724.614 29.6305 754.794 33.0062 772.321 41.1418ZM572.074 34.0817L518.003 293.209H448.288L471.413 182.217H388.971L365.857 293.209H296.153L350.235 34.0817H419.928L399.453 133.211H481.853L502.37 34.0817H572.074ZM324.524 34.0817L269.367 293.209H182.807L128.395 113.905H127.65L91.4467 293.209H25.8185L81.4114 34.0817H168.249L221.607 213.779H222.341L258.874 34.0817H324.524ZM802.257 3.01927H3.28979V324.963H802.257V3.01927Z" fill="#4A5565"/>
<path d="M144.176 417.011H187.531C236.1 417.011 279.008 433.367 279.008 496.28C279.008 559.204 236.1 575.55 187.531 575.55H144.176V417.011ZM175.953 550.568H193.661C220.212 550.568 245.869 530.803 245.869 496.28C245.869 461.757 220.212 441.993 193.661 441.993H175.953V550.568Z" fill="#4A5565"/>
</g>
<path d="M494.197 408.15H524.611V437.221H494.197V408.15ZM494.197 458.572H524.611V575.548H494.197V458.572Z" fill="#4A5565"/>
<mask id="mask1_32_48" style="mask-type:luminance" maskUnits="userSpaceOnUse" x="-5171" y="-480" width="6336" height="8966">
<path d="M-5170.57 8485.13H1164.25V-479.957H-5170.57V8485.13Z" fill="white"/>
</mask>
<g mask="url(#mask1_32_48)">
<path d="M566.615 480.829H544.139V458.573H566.615V435.167L597.029 425.402V458.573H624.049V480.829H597.029V535.34C597.029 545.339 599.753 554.646 611.332 554.646C616.78 554.646 621.995 553.507 625.177 551.473L626.081 575.55C619.728 577.36 612.694 578.276 603.616 578.276C579.779 578.276 566.615 563.506 566.615 540.334V480.829Z" fill="#4A5565"/>
<path d="M654.686 464.706C666.488 459.254 682.376 455.847 695.317 455.847C730.956 455.847 745.716 470.616 745.716 505.14V520.133C745.716 531.943 745.94 540.792 746.163 549.428C746.397 558.288 746.844 566.466 747.525 575.549H720.74C719.601 569.416 719.601 561.695 719.378 558.064H718.931C711.886 571.002 696.679 578.275 682.834 578.275C662.178 578.275 641.98 565.784 641.98 543.528C641.98 526.033 650.376 515.81 661.955 510.134C673.533 504.458 688.517 503.319 701.223 503.319H718.016C718.016 484.47 709.619 478.103 691.688 478.103C678.747 478.103 665.818 483.107 655.601 490.828L654.686 464.706ZM690.326 556.019C699.637 556.019 706.895 551.93 711.663 545.562C716.654 538.981 718.016 530.58 718.016 521.486H704.852C691.23 521.486 671.032 523.764 671.032 541.708C671.032 551.696 679.428 556.019 690.326 556.019Z" fill="#4A5565"/>
</g>
<path d="M771.821 405.191H802.235V575.539H771.821V405.191Z" fill="#4A5565"/>
<path d="M301.484 408.15H331.898V437.221H301.484V408.15ZM301.484 458.572H331.898V575.548H301.484V458.572Z" fill="#4A5565"/>
<mask id="mask2_32_48" style="mask-type:luminance" maskUnits="userSpaceOnUse" x="-5171" y="-480" width="6336" height="8966">
<path d="M-5170.57 8485.13H1164.25V-479.957H-5170.57V8485.13Z" fill="white"/>
</mask>
<g mask="url(#mask2_32_48)">
<path d="M466.73 458.573V564.198C466.73 595.996 454.024 625.982 404.986 625.982C392.961 625.982 379.116 624.161 364.579 618.028L367.08 592.13C376.392 597.135 391.599 602.353 401.134 602.353C434.73 602.353 436.316 577.147 436.316 556.925H435.858C430.186 566.924 416.565 575.55 399.538 575.55C365.037 575.55 351.873 547.842 351.873 516.503C351.873 488.326 366.399 455.847 401.358 455.847C416.788 455.847 428.824 461.076 437.22 474.483H437.678V458.573H466.73ZM436.316 515.81C436.316 495.823 428.601 479.477 410.893 479.477C390.237 479.477 383.65 498.549 383.65 516.503C383.65 532.401 392.046 551.931 409.53 551.931C428.601 551.931 436.316 535.351 436.316 515.81Z" fill="#4A5565"/>
</g>
</g>
<defs>
<clipPath id="clip0_32_48">
<rect width="805" height="629" fill="white" transform="translate(0.272888)"/>
</clipPath>
</defs>
</svg>
