<svg width="801" height="135" viewBox="0 0 801 135" fill="none" xmlns="http://www.w3.org/2000/svg">
<path d="M39.4201 132.583H0.870056V2.88287H67.3951L143.82 99.7579V2.88287H182.37V132.583H117.145L39.4201 34.1329V132.583ZM366.495 92.4829C366.495 110.458 363.245 116.708 357.895 122.683C349.82 131.533 337.97 134.283 315.045 134.283H249.295C226.37 134.283 214.52 131.558 206.32 122.683C200.97 116.683 197.72 110.583 197.72 92.4829V42.4829C197.72 24.5079 200.97 18.2579 206.32 12.4079C214.52 3.43286 226.37 0.807861 249.295 0.807861H315.045C337.82 0.807861 349.82 3.40785 357.895 12.4079C363.245 18.2579 366.495 24.5079 366.495 42.6079V92.4829ZM313.37 101.458C322.22 101.458 325.22 100.933 327.445 98.9829C329.395 97.1579 330.32 94.9579 330.32 87.2579V47.6829C330.32 40.1329 329.42 37.7829 327.445 36.0829C325.22 34.1329 322.245 33.6079 313.37 33.6079H250.87C242.145 33.6079 239.02 34.1329 236.945 36.0829C234.87 37.7829 234.07 40.1079 234.07 47.6829V87.2579C234.07 94.9329 234.97 97.1579 236.945 98.9829C239.02 100.933 242.145 101.458 250.87 101.458H313.37ZM422.495 2.90785V132.608H382.27V2.90785H422.495ZM490.47 2.90785H543.47L471.845 63.5829L552.695 132.583H495.795L422.495 65.0079L490.47 3.03286V2.90785ZM560.12 3.03286H600.345V132.583H560.12V3.03286ZM753.745 132.583L741.77 110.058H663.895L652.17 132.583H607.77L678.995 2.88287H728.995L800.345 132.583H753.745ZM677.97 81.9328H727.97L702.97 34.9329L677.97 81.9328Z" fill="#4A5565"/>
</svg>
