<svg width="1752" height="569" viewBox="0 0 1752 569" fill="none" xmlns="http://www.w3.org/2000/svg">
<path d="M1244.84 36.168L1273.13 64.4595L1301.42 36.168L1273.13 7.87646L1244.84 36.168Z" fill="#4A5565"/>
<path d="M779.309 155.803L626.638 7.53136V252.935H670.602V113.208L823.273 260.087V14.3458H779.309V155.803Z" fill="#4A5565"/>
<path d="M1213.14 49.4634C1217.91 49.4634 1228.14 50.4761 1235.99 52.185L1231.2 11.6359C1222.34 9.92706 1214.18 9.25195 1205.3 9.25195C1166.12 9.25195 1144.64 30.3704 1143.61 76.7212H1085.01V70.9194C1085.01 54.569 1093.17 49.4634 1111.25 49.4634C1116.02 49.4634 1126.25 50.4761 1134.08 52.185L1129.31 11.6359C1120.45 9.92706 1112.26 9.25195 1103.4 9.25195C1064.21 9.25195 1042.75 30.3704 1041.72 76.7212H1026.04L1018.22 116.616H1041.72V252.926H1085.01V116.616H1143.61V252.926H1186.9V116.616H1233.25V76.7212H1186.9V70.9194C1186.9 54.569 1195.08 49.4634 1213.14 49.4634Z" fill="#4A5565"/>
<path d="M961.974 197.041C956.173 205.565 941.195 216.809 922.778 216.809C907.779 216.809 892.105 212.041 892.105 184.763V76.7232H848.837V194.299C848.837 239.299 877.464 256.325 913.918 256.325C938.811 256.325 954.485 245.776 963.008 238.962V252.928H1005.26V76.7232H961.974V197.041Z" fill="#4A5565"/>
<path d="M1251.31 252.926H1294.6V76.742H1251.31V252.926Z" fill="#4A5565"/>
<path d="M1359 167.724C1357.99 138.42 1375.35 111.141 1411.49 111.141C1426.15 111.141 1437.38 118.314 1441.83 129.897L1359 167.724ZM1410.46 73.3135C1353.56 73.3135 1315.04 113.884 1315.04 167.049C1315.04 215.446 1346.75 257.029 1409.11 257.029C1438.41 257.029 1461.93 249.518 1486.13 235.552L1472.84 198.062C1453.07 211.353 1434.99 218.843 1412.5 218.843C1394.78 218.843 1380.82 214.75 1370.59 203.505L1491.57 148.293C1483.05 98.1873 1455.79 73.3135 1410.46 73.3135Z" fill="#4A5565"/>
<path d="M1708.32 194.994C1697.08 206.576 1682.08 216.45 1660.96 216.45C1629.95 216.45 1617 192.272 1617 166.027C1617 136.364 1632.67 113.199 1663.35 113.199C1683.11 113.199 1698.79 123.769 1708.32 136.364V194.994ZM1708.32 89.0009C1699.8 82.1864 1684.46 73.3045 1659.93 73.3045C1610.52 73.3045 1572.36 107.735 1572.36 164.318C1572.36 228.053 1611.2 256.324 1653.12 256.324C1680.03 256.324 1697.08 247.822 1709 236.914V252.927H1751.61V11.9745L1708.32 17.4177V89.0009Z" fill="#4A5565"/>
<path d="M1508.62 252.926H1551.91V11.9735L1508.62 17.4166V252.926Z" fill="#4A5565"/>
<path d="M1332.76 468.989V406.625H1378.1V366.751H1332.76V316.645L1289.47 322.088V366.751H1273.82L1265.97 406.625H1289.47V475.803C1289.47 522.829 1301.75 545.678 1352.19 545.678C1358.33 545.678 1368.2 544.982 1376.39 543.294L1381.49 502.048C1374.01 504.432 1363.77 505.445 1358.33 505.445C1338.21 505.445 1332.76 500.002 1332.76 468.989Z" fill="#4A5565"/>
<path d="M1210.08 542.942H1253.37V301.99L1210.08 307.433V542.942Z" fill="#4A5565"/>
<path d="M1490.55 363.334C1468.07 363.334 1452.73 370.486 1441.82 378.334V301.983L1398.53 307.447V542.935H1441.82V421.963C1448.97 413.102 1462.96 402.87 1479.65 402.87C1494.98 402.87 1512.03 406.625 1512.03 433.545V542.935H1555.32V427.406C1555.32 379.009 1521.9 363.334 1490.55 363.334Z" fill="#4A5565"/>
<path d="M1141.24 490.466C1137.5 494.2 1121.13 507.85 1096.93 507.85C1076.83 507.85 1068.64 497.955 1068.64 486.71C1068.64 472.069 1077.17 464.221 1101.03 464.221C1118.07 464.221 1135.1 470.698 1141.24 475.128V490.466ZM1109.19 363.333C1088.75 363.333 1067.97 367.089 1049.89 373.565L1041.39 414.452C1056.03 407.638 1080.23 400.486 1102.04 400.486C1127.61 400.486 1141.24 408.671 1141.24 429.79V437.638C1126.93 430.127 1110.9 427.406 1094.89 427.406C1055.35 427.406 1024.34 444.79 1024.34 486.373C1024.34 518.42 1047.86 546.353 1089.09 546.353C1117.71 546.353 1134.08 535.108 1141.91 527.281V542.935H1184.52V435.929C1184.52 396.73 1170.54 363.333 1109.19 363.333Z" fill="#4A5565"/>
<path d="M775.56 398.78H670.924V304.37H626.623V542.938H670.924V441.376H775.56V542.938H819.862V304.37H775.56V398.78Z" fill="#4A5565"/>
<path d="M885.299 457.741C884.265 428.437 901.648 401.158 937.786 401.158C952.447 401.158 963.67 408.331 968.122 419.914L885.299 457.741ZM936.752 363.331C879.856 363.331 841.335 403.901 841.335 457.066C841.335 505.464 873.021 547.046 935.402 547.046C964.704 547.046 988.226 539.536 1012.42 525.569L999.133 488.079C979.366 501.371 961.287 508.86 938.798 508.86C921.078 508.86 907.112 504.767 896.881 493.522L1017.87 438.311C1009.34 388.205 982.087 363.331 936.752 363.331Z" fill="#4A5565"/>
<path d="M477.12 300.503H295.526V538.481C293.923 539.114 292.193 539.81 290.632 540.401C277.468 545.19 259.009 550.97 245.93 553.629C232.85 550.97 214.412 545.19 201.333 540.443C199.75 539.852 197.978 539.114 196.312 538.481V300.503H14.7391V205.839H196.312V16.4908C196.607 16.4697 196.924 16.4486 197.219 16.4275C215.087 15.3093 229.665 14.8241 245.93 14.8241C262.216 14.8241 276.772 15.3093 294.577 16.4275C294.893 16.4486 295.231 16.4697 295.526 16.4908V205.839H477.12V300.503ZM295.526 2.18678C274.662 0.878744 259.642 0.583377 245.93 0.583377C232.238 0.583377 217.197 0.89983 196.312 2.20786C148.023 5.45685 71.0019 15.246 0.499268 42.6514V42.6726V205.839V300.503V312.254V312.423C0.499268 313.668 0.583674 314.849 0.60477 316.094C2.77765 459.661 125.155 527.257 196.312 553.797C196.333 553.797 196.333 553.797 196.354 553.797C210.699 559.008 231.584 565.527 245.93 568.144C260.275 565.527 281.16 559.008 295.505 553.797L295.526 553.776C366.704 527.236 489.081 459.661 491.254 316.094C491.275 314.849 491.36 313.668 491.36 312.423V312.254V300.503V205.839V42.6726V42.6514C420.857 15.246 344.49 5.43577 295.526 2.18678Z" fill="#4A5565"/>
</svg>
